<svg version="1.1" id="Warstwa_1" xmlns="http://www.w3.org/2000/svg" x="0" y="0" viewBox="0 0 883.8 253.2" xml:space="preserve"><style>.st0{fill:#890202}</style><path class="st0" d="M386.3 214.8c-.4-.3-.9-.3-1.4-.1-.6.2-.4.4.4.4s1.3 0 1-.3m-1.6 4.6c1.6.3 1.9.5 1.1 1s-.9.7 0 .4c2.2-.6 1.6-2-.8-1.9s-2.4.2-.3.5m-32.3 20.8c-.7.2-.1.3 1.3.3s1.9-.1 1.3-.3c-1-.1-1.8-.1-2.6 0zm42-22c-1 0-2 .2-2.9.7-.9.6-.8.7.4.7 1-.1 1.9-.3 2.9-.7 1.3-.6 1.2-.6-.4-.7m-30.4 1.4c-.9.4-1.1.6-.4.7.8 0 1.5-.3 2.1-.7 1.4-.8.3-.8-1.7 0m-10.4 18c-.5.6 12.9-.3 13.5-.9.3-.3-2.6-.3-6.3 0-2.4.1-4.8.4-7.2.9m9.6-12.9c.8 0 1.2-.1.9-.4-.4-.3-.9-.3-1.4-.1-.5.3-.3.4.5.5m-.5 2.5c-.5.2-.1.4.9.4s1.4-.2.9-.4c-.6-.2-1.2-.2-1.8 0m-8 2.4c1.6 0 2.3-.1 1.6-.3-.9-.2-1.9-.2-2.9 0-.8.2-.3.3 1.3.3m36-13.4c-.6.2-.4.4.4.4s1.2-.1.9-.4c-.3-.2-.9-.2-1.3 0m-35.8 2.9c-.6.2-.4.4.4.4s1.2-.1.9-.4c-.3-.1-.9-.2-1.3 0m-3.4 18.7c.7-.5-1.1-.6-6.1-.3-2.5.1-5 .3-7.5.8-.7.6 12.6.2 13.6-.5m6.4-21.4c-.4-.3-.7-.1-.7.3s.3.8.7.8c.4 0 .7-.1.7-.3s-.3-.6-.7-.8m-3.7 10.7c-.9.2-.3.3 1.2.3s2.3-.1 1.6-.3c-.9-.1-1.9-.1-2.8 0m-.4-11c-1 0-1 .2.2.7 1.9.8 1.9.8 1.4 0-.4-.5-1-.8-1.6-.7m100.4-5.2c1.3-.6 1.2-.6-.5-.7-1.1 0-2 .3-2 .7-.1.9.5.9 2.5 0m13.4-1.5c.9 0 1.7-.4 2.4-1 1-1 .8-1.1-1.3-1-1.6.1-1.9.2-1 .5 1.4.4 1.4.4 0 1s-1.2.5-.1.5m-21.5 1c-.6-.2-1.2-.2-1.8 0-.5.2-.1.4.9.4s1.4-.2.9-.4m-10 0c-.7.2-.1.3 1.3.3s1.9-.1 1.3-.3c-.9-.2-1.8-.2-2.6 0m-.4-2.9c-.5.2-.1.4.9.4s1.4-.2.9-.4c-.6-.2-1.2-.2-1.8 0m95.4-9.7c.8.5 1.5.2 2.4-.8 1.2-1.5 1.2-1.5-4.3-1.1-6.4.5-9.8 1-11.9 1.9-1.3.5-1.1.6 1 .6 2.4-.1 4.7-.3 7.1-.6 2.6-.4 5-.4 5.7 0m-35.8 14.3c-.7 1.4-1.5 1.7-4 1.8-6.7.2-15.9 1.8-17 2.8-.6.7-.4.8 1.3.4 2.1-.4 4.3-.7 6.4-.9 2.3-.2 4.6-.5 6.8-1 1.2-.3 2.4-.6 3.6-.7 1.6 0-2.2 2.1-3.9 2.1-1.2 0-1.3.2-.4.7.6.4.8.7.5.7s-.4.3-.1.7c1 1 2.6 1 3.6 0 .2-.4 2.2-.7 4.3-.7s3.9-.3 3.9-.7-1.6-.7-3.6-.7c-2.5 0-3.5-.3-3.1-.8s1.7-.6 4-.3c2.8.4 3.6.2 3.9-.6.3-.7 1.3-1.1 2.7-1.1 1.7 0 2-.2 1.2-.7-.6-.4-.9-.9-.6-1.1.6-.7 10.3-1.7 10.5-1.1s4.5 0 12-1.5c3.5-.6 7-.9 10.5-1.1 2.3 0 4.6-.2 6.9-.6.3-.2.8-.2 1.1.2.2.3 2.6.7 5.2.8s7 .4 9.5.8c11.9 1.7 38.3 1.6 36.6-.2-.4-.4-2.4-.9-4.5-1.3l-3.8-.6 3-.6c2.8-.5 5-2.6 2.8-2.6-.6 0-1.1-.4-1.3-.9-.2-.7-.8-.7-2.9 0-2.4.7-4.9 1-7.3 1.1-4.4.1-4.6.2-2.7 1 1.7.6 3.5.9 5.2.9 2.5 0 2.9.2 2 .8-.7.4-6.6.6-15 .4-7.6-.2-15.8-.3-18.2-.3-3.9 0-4.5-.2-4.9-1.5-.3-.6-.3-1.3-.2-1.9.5-.5 3.5-1.1 6.8-1.3 2.7-.1 5.4-1.2 3.1-1.2-.5 0-.7-.3-.5-.6s-.1-.8-.6-1.1-1.1-.1-1.3.3c-.2.7-2.6 1.3-12.7 3.2-2.9.6-5.5 1.3-5.7 1.7-.4.6-5.2 1.5-9 1.6-.7 0-1.4.3-1.9.8-.3.4-3.2.9-6.5 1-5.8.3-5.8.2-1.9-.4 3.2-.6 6.3-1.5 9.3-2.7 4.1-1.6 4.8-2.1 3.2-2.3-1.2-.1-2.5.2-3.5.8-2.1 1.3-9.8 3.4-13.3 3.5-1.6.1-2.1.2-1.2.5 1.1.3.6.6-1.8 1.4-1.5.5-3.1.8-4.6 1-1.2 0-1.3-.1-.4-.8s.8-.7-.4-.3c-1.9.4-3.9.7-5.8.9-3.6.5-4.5.8-5.3 2.3m42.3-5.5c1.8-1.1 6.4-1.3 6.4-.2 0 .3-1.7.7-3.8.7-2.4.1-3.3-.1-2.6-.5m-40.3 7.4c.6-.2 1.2-.2 1.8 0 .5.2.1.4-.9.4s-1.4-.2-.9-.4m8.6-10.1c-.4-.3-.9-.3-1.4-.1-.6.2-.4.4.4.4s1.2 0 1-.3m-3.9.7c-.7-.2-1.4-.2-2.1 0-.7.2-.3.4.9.4s1.7-.2 1.2-.4m-72.9 12c1 0 2-.3 2.9-.6 1.4-.6 1.4-.6 0-.6-1 0-1.9.3-2.9.6-1.4.6-1.4.6 0 .6m6.4-.6c.8 0 1.2-.1.9-.4-.4-.3-.9-.3-1.4-.1-.5.3-.3.5.5.5m-18.7 1c-.6-.2-1.2-.2-1.8 0-.5.2-.1.4.9.4s1.4-.2.9-.4m-5.2.7c-.8-.3-1.7-.4-2.5-.3-1.4 0-2.5.3-2.5.6s1.1.4 2.5.3c.9 0 1.7-.2 2.5-.6m5.4 1.8c2.2 0 4.3-.2 6.4-.5l2.1-.6H423c-2.2.1-4.3.2-6.4.5l-3.9.6h4.3z"/><path class="st0" d="M426.8 218.6c-.5.5 11.4-.2 13.6-.8.7-.2 1.3-.7 1.3-1s1.7-.7 3.8-.7c2.7 0 3.5.2 2.7.7s1.3.6 6.4.3c4.1-.2 7.8-.7 8.2-1 .9-.7 7.8-2.4 8.7-2.1 1.2.3 8.5-.9 9.3-1.6.4-.4 3.2-.9 6.1-1.1 4.9-.4 5.2-.4 3.9.7-1.1.9-1.2 1.2-.4 1.2 1.2 0 3.6-1.4 2.5-1.4-.4 0-.2-.3.4-.7.9-.6.7-.7-.7-.8s-1.1-.3 1.3-1.2c4.6-1.6 3.1-2-2.8-.6-3.1.7-6.3 1.2-9.5 1.5-2.4.2-5.8.6-7.6.8s-4.3.5-5.5.6c-1.3.1-2.6.6-3.7 1.4-1.2.9-2.7 1.3-4.1 1.1-2.1 0-4.2.1-6.4.4-2 .3-5.7.6-8.3.6s-5.2.5-5.8 1-3.7 1.2-7 1.6-6.2.8-6.4 1.1zm28.7-3.4c1.5-.4 3.1-.4 3.4-.1s-.9.6-2.8.7l-3.4.1 2.8-.7zm-24.1-4.7c-.4-.3-.9-.3-1.4-.1-.6.2-.4.4.4.4s1.3-.1 1-.3m-22.3 9.7c1.6 0 2.3-.1 1.6-.3-.9-.2-1.9-.2-2.9 0-.9.1-.3.3 1.3.3m-122.9 13.7c-1.3-.4-2-.3-2 .2s.7.9 1.6 1.1c3.2.6 7.4.4 13.4-.6l6.1-1-5.7.4c-8.3.6-11.2.6-13.4-.1M520 201.3c-1 .2-1.6.6-1.4 1 .6 1 3.2.8 3.2-.4 0-.6-.6-.9-1.8-.6m-221.4 29.3c-.9-.6-2.9-.3-2.9.4 0 .2.9.3 2 .3 1.4 0 1.6-.2.9-.7m-34.1 5c-.2.4.1.7.7.7s1.1-.3 1.1-.7c0-.4-.3-.7-.7-.7-.4.1-.8.3-1.1.7m17.7 6.8c-1.1-.2-2.2-.2-3.2 0-.9.2-.2.3 1.6.3s2.5-.1 1.6-.3m-19.1-7.4c-.5-.9-6.6-1.1-7.1-.2-.2.3 1.4.6 3.6.8 2.7.1 3.8-.1 3.5-.6m77.2-6.7c.8 0 1.2-.1.9-.4-.4-.3-.9-.3-1.4-.1-.5.3-.3.5.5.5m-21.6.3c-.6-.2-1.2-.2-1.8 0-.5.2-.1.4.9.4s1.4-.2.9-.4"/><path class="st0" d="M300.4 237.5c-19.5.3-20.3.1-23-3.1-1.1-1.3-1.7-1.5-2.5-1-.6.4-.7.7-.3.7 1.1.4 2.1 1 2.9 1.9 1.1 1 2.4 1.8 3.9 2.2 1.1.2 2.2.6 3.2 1 2 .9 5.2.9 5.7 0 .2-.4 3.4-.8 7-.8s10-.3 14.1-.6c5.1-.4 1.5-.5-11-.3m18.1-7.1c1 0 1.4-.2.9-.4-.6-.2-1.2-.2-1.8 0-.4.3 0 .4.9.4m-23.6 10.3c0-.4-1-.7-2.3-.6-2.2.1-2.2.1-.5.6 2.5.9 2.8.9 2.8 0m-4 2.9c-1.2-.7-2.5-1-3.9-1.1l-3.1-.3 2.5 1c3.1 1.2 5.6 1.5 4.5.4m-89.4-15.8c-1.3 0-2.6-.1-3.9-.4l-2.5-.5 2.1 1c2.6 1.3 3.2 1.3 4.6.4 1-.5.9-.6-.3-.5m9.9 9.1c1.7 0 2.5-.3 2-.7s-1.4-.4-2.7.1c-2 .7-2 .7.7.6m116.3 1.1c-1.7.1-.5.3 2.7.3s4.5-.1 3.1-.3c-2-.2-3.9-.2-5.8 0m11.6-23.4c-.4 0-.7.3-.7.7 0 .4.5.7 1.1.7s.9-.3.7-.7c-.3-.4-.7-.7-1.1-.7m-9 31.9c.8 0 1.2-.1.9-.4-.4-.3-.9-.3-1.4-.1-.5.3-.3.5.5.5m4.2-24.5c-1.1-.2-2.2-.2-3.2 0-.9.2-.2.3 1.6.3s2.4-.1 1.6-.3m-97.8-3.1c-1.1-.3-2-.8-2.9-1.5-1.1-.9-2.1-1.3-2.4-1.1s-.3.6-.1.7l2.4 1.8c2.1 1.6 5.2 2.2 4.4.9-.4-.5-.9-.8-1.4-.8m-2.9 9.2c-1.9-.1-2.3.1-1.6.6.9.7 2.6 3.5 2.6 4.3 0 .2-.5.2-1.1 0-2.1-.8-1 .6 1.3 1.6 1.7.7 3.6.9 5.5.7 1.7-.2 3.7-.4 4.5-.4s1.3-.3 1.3-.7-1.1-.7-2.5-.7c-1.5.1-3-.5-4-1.6-3-3.4-3.5-3.7-6-3.8m3.5 4.7c-.2 0-.5-.3-.8-.7s-.1-.7.3-.7.7.3.8.7c.1.3-.1.7-.3.7m21.3 6c-.7-.2-1.4-.2-2.1 0-.7.2-.3.4.9.4s1.7-.2 1.2-.4M450.5 221c-.5-.5-1.4-.5-2.7 0-1.3.5-2.6.7-4 .8-1.1 0-2.3.2-3.4.5-1.1.4-1.1.6.5 1.1 3.4.9 11-1 9.6-2.4m101.3-7.2c0-.4-.3-.7-.7-.7-.5.1-.9.3-1.1.7-.2.4.1.7.7.7s1.1-.3 1.1-.7m3.2 8c-1.1 0-7.4 2.9-7.4 3.4 0 .9 5.5-.7 6.8-2 .8-.8 1-1.4.6-1.4m-28.3-7.9c-1 .6-2.2.6-3.2.1-1.2-.6-2.6-.5-3.7.3-6.1 3.1-8.3 4-10.4 4.1-1.4.1-2.8.3-4.1.7-1.2.4-.2.6 3.3.4 5.3-.3 16-2.8 18.3-4.3 1.8-1.3 1.7-2.3-.2-1.3M449.5 225c-1-.3-2-.4-3-.3-1.8 0-2.7.3-2.1.6.8.6 5.2.3 5.1-.3m-75.1-5.5c1 0 1.4-.2.9-.4-.6-.2-1.2-.2-1.8 0-.5.3-.1.4.9.4m-4.1-3.3c-.7.2-.1.3 1.3.3s1.9-.1 1.3-.3c-1-.1-1.8-.1-2.6 0m-2.2 2.9c-.7.2-.3.4.9.4s1.8-.1 1.3-.3c-.7-.2-1.5-.2-2.2-.1m-44 19c-.4-.3-.9-.3-1.4-.1-.6.2-.4.4.4.4s1.2 0 1-.3m99.1-15.3c-.7.2-.1.3 1.3.3s1.9-.1 1.3-.3c-.9-.2-1.8-.2-2.6 0m163.7-19.4c0 .6 1.4.3 1.8-.4.3-.4 0-.5-.7-.3s-1.1.5-1.1.7m-42.3-8.9c.9-.8-1-1-5.6-.5-3.2.3-4.8.7-4.2 1.1.9.5 9.1 0 9.8-.6m52.1 8c-.4-.3-.9-.3-1.4-.1-.6.2-.4.4.4.4s1.3-.1 1-.3m-4.8 13.4l1.8-.1-1.8-.6c-.9-.3-1.9-.5-2.9-.6-1-.1-1 0 0 .6 1 .5 1.9.8 2.9.7m-11.6-.4c-.5.2-.1.4.9.4s1.4-.2.9-.4c-.6-.2-1.2-.2-1.8 0m8.6-14.8c1 0 1.1-.1.1-.7-1.4-.9-2.3-.9-1.8 0 .5.5 1.1.8 1.7.7m-61 21.9l-2.2.1 2.5.5c2.2.4 1.9.6-2.7 1.1-2.9.3-5.4.9-5.6 1.3s1.9.5 6.3.2c5.3-.4 7-.8 7.8-1.9 1.2-1.5 6.5-3.6 9.1-3.6.9 0 1.6-.5 1.6-1.1 0-2.3-5.3-3.6-6.5-1.7-.7.6-1.6.9-2.5.9-1.7.3-3.4.9-4.9 1.8-2.8 1.6-2.7 1.6 3.3 0 3.2-.9 6.2-.9 5.3-.1s-8.1 2.4-11.5 2.5m-18.2 1.4c2.2 0 2.8-.3 2.8-1.3s-.6-1.3-5.4-1c-3 .1-5.4.5-5.4.9s.4.7.8.7.6.5.4 1.1c-.3.8.1 1.1 1.3 1.1.8.1 1.6-.2 2.2-.7.2-.4 1.7-.8 3.3-.8m27.1 0c0 .4.8.6 2 .3 2.8-.7 2.9-1 .3-1-1.2 0-2.3.3-2.3.7m6.1-1.4c-1.2.5-1.1.6.8.7 1.3 0 2.5-.3 2.7-.7.6-.9-1.5-.9-3.5 0m-72-3.4c1.2-.9 1.4-1.3.7-2.6-.5-1-1-1.3-1.3-.6s-7.4 2.2-10.6 2.2c-.5 0-.8.3-.9.7 0 .4.8.7 1.8.7s1.7.2 1.5.5 2 .5 4.7.5 4.5-.1 3.8-.3c-1.1-.1-1-.2.3-1.1m63.4-17c-.2.4.1.7.7.7s1.1-.3 1.1-.7c0-.4-.3-.7-.7-.7-.4 0-.8.3-1.1.7m-414.7 2.9c2.3-.6 2.4-.6.5-.7-3.2-.1-8.2 1.4-9.5 2.9-1.6 1.7-1.2 1.7 3-.1 1.9-.8 3.9-1.5 6-2.1m-14.7-23.9c1.3-1.5.6-2.6-1-1.5-.6.4-.8.7-.4.7s.2.5-.3 1.1c-1.3 1.6.3 1.3 1.7-.3m498.8 35.5c.3-.4-.3-.7-1.2-.7-1.3 0-1.4.1-.6.7 1.4.9 1.3.9 1.8 0m-467.4-14.3c-.7-.2-1.4-.2-2.1 0-.7.2-.3.4.9.4s1.6-.1 1.2-.4M68.8 204c0 .5-.2.6 10.8-3.7 14.8-5.8 28.3-10.5 30.3-10.5 1.4 0 5.3-2.1 3.9-2.2-3.5-.1-45 15-45 16.4m45.3-29.2c-.6-.2-1.2-.2-1.8 0-.5.2-.1.4.9.4s1.3-.2.9-.4m101.2 45.1c-.5.2-.1.4.9.4s1.4-.2.9-.4c-.6-.2-1.2-.2-1.8 0m13.4-2.5c-.7-1.1-4.4-.7-4.9.4-.3.8.1 1.1 1.3 1.1 2.4 0 4-.7 3.6-1.5m12.9 2.1c1.6 0 2.3-.1 1.6-.3-.9-.2-1.9-.2-2.9 0-.8.1-.3.3 1.3.3"/><path class="st0" d="M207.8 221.4c-.9-1-1.6-1.5-1.6-1.1s1.2 1.7 2.7 2.9c1.9 1.6 2.3 2.2 1.4 2.2-.7 0-1.2.3-1.2.6 0 .7 12.8.6 17.7-.2 4.2-.6 4.4-1.9.3-1.8-1.7 0-3.3-.1-5-.4-1.9-.4-2.2-.7-1.5-1.5.4-.6 2.1-1 3.7-1s2.6-.3 2.2-.6-2.3-.4-4.3-.1-3.1.6-2.6.6c1.3.1-2.3 3-3.8 3-.6 0-1.1.3-1.1.7 0 1.3-5.2-1.2-6.9-3.3m35.4-10.9c-.4-.3-.9-.3-1.4-.1-.6.2-.4.4.4.4s1.2-.1 1-.3m37.2 12.3c-.4-.3-.9-.3-1.4-.1-.6.2-.4.4.4.4s1.3 0 1-.3m-37.4 7.4c-1.9-.4-2.4-.3-2 .4s2.7.8 9.2.4c17.5-1.1 36-1.5 40.1-1.1 3.3.4 4.5.3 5.3-.6s1-1.1-.4-.6c-.8.3-1.7.2-1.9-.2-.8-1.3 4.9-1.7 7.1-.5 2.4 1.3 6.6 1.5 8.2.4.8-.6.5-.6-1.3-.3-2.7.6-6.6-.2-6.6-1.2 0-.4.4-.6.9-.4 1.5.6 10.1-.9 10.7-1.8.4-.6 3-1 7.4-1.1 4.2-.1 6.7-.5 6.4-1s-1.6-.5-3.3-.2c-2.2.4-2.8.3-2.3-.4s.1-.8-.8-.5c-4.7 1.5-16.9 2.8-21.9 2.4-3.8-.3-5.5-.2-5.5.3s-1.5.8-4.1.7c-1.8-.1-3.6 0-5.4.4-1.6.3-3.2.4-4.8.3-3.4-.2-4.7.3-2.7 1.1.5.2-1 .2-3.2 0-2.5-.2-4.5-.1-5 .4-2.6 2.2-18.9 2.5-23.8.5-1.3-.6-1.4-.5-.2.6.5.6 1.2 1 2 1.2.4 0 .8.4.8.8 0 .5-.9.6-2.6.3m36.9-2.6c.8-.2 1.7-.2 2.5 0 .7.2.1.3-1.3.3s-1.9-.1-1.2-.3"/><path class="st0" d="M262.5 225.7c-.4-.3-.9-.3-1.4-.1-.6.2-.4.4.4.4s1.3 0 1-.3m-56.9-9.6c.4-.4.5-1.1.2-1.6-.3-.6-.8-.6-1.2-.1-.4.4-.5 1.1-.2 1.6.3.6.8.6 1.2.1m17.4-6c-.2-.4-2.5-.6-5.1-.6-3.5 0-4.5.2-3.9.8.4.5.6 1.2.4 1.9-.3.9-.1.9 1.1.3 1.1-.5 2.4-.8 3.6-.8 2.6 0 4.4-.7 3.9-1.6m-80.1-7.2c-.9.4-1 .6-.4.6.9-.1 1.7-.3 2.5-.6.9-.4 1-.6.4-.6-.9.1-1.7.3-2.5.6m35 11.3c5.1-.7 7.6-1.4 8.3-2.3 1-1.2.2-1.3-4.4-.2-2.1.5-4.3.7-6.4.8h-3.2l2.1.9c1.2.6 2.4.8 3.6.8m-10 3.3c-.7.8-.9 1.4-.5 1.4s1.1-.6 1.6-1.4.6-1.4.5-1.4c-.6.3-1.1.8-1.6 1.4m29 17c-1.4-.3-1.6-.2-.7.4 1.4.6 2.8.9 4.3.8 1.5 0 2.9.2 4.3.7.6.4 1.4.6 2.1.7.7 0 .6-.2-.3-.6-1.3-.5-1.3-.6-.1-1 1.1-.3 2.3-.5 3.5-.6l2.3-.1-1.9-.6c-2.3-.3-4.5-.3-6.8 0-2.3.4-4.5.5-6.7.3m-51-34.1c-2.3.2-4.6.5-6.8 1-2.6.8 5.5.1 9.1-.8 1.8-.4 1.2-.5-2.3-.2m178 19.9c.8 0 1.2-.1.9-.4-.4-.3-.9-.3-1.4-.1-.5.3-.4.5.5.5M35.5 181.1c-.8 0-1.5.6-1.6 1.4 0 .3 0 .5.2.8.4.7 3.2 1.1 3.2.4 0-1.1-1-2.6-1.8-2.6M483 198.8c-.6.2-.4.4.4.4s1.2-.1.9-.4c-.3-.2-.9-.2-1.3 0M42.3 98.2c.4 0 .7-.3.7-.7 0-.4-.3-.7-.7-.7s-.7.3-.7.7c0 .3.3.7.7.7m95.2-52.4c0 .3-.6.7-1.4.9s-1.4.7-1.4 1.1c0 .4 2.3.3 5.6-.4 9.7-1.8 10.6-2.2 12.8-5.1 1.7-2.2 1.8-2.6.6-2.1l-2.5 1c-.6.2-.1-.5 1-1.5 2.7-2.6 1.9-2.5-1.8.2-1.7 1.3-3.4 2-4 1.7s-1-.2-.6.4c.4.5.9.8 1.6.8.9 0 .9.3.1 1.5s-1.4 1.5-5.4 1.2c-2.5-.1-4.5 0-4.6.3M61.6 67.6c.4 0 .7-.3.8-.7 0-.4-.1-.7-.3-.7s-.5.3-.8.7-.1.7.3.7m-45 52.6c.9-1.2.9-1.2-.3-.3-.5.3-.9.8-1.3 1.3.1.6.7.2 1.6-1m399.2 81.5c-.6.2-.4.4.4.4s1.2-.1.9-.4c-.4-.2-.9-.2-1.3 0m51.4.7c-.5.2-.1.4.9.4s1.4-.2.9-.4c-.6-.2-1.2-.2-1.8 0m-5.1-.2c-.8-.1-1.6.2-2.2.7-.3.4.5.7 1.8.7s2.2-.3 2.2-.7-.9-.7-1.8-.7m-32.8 1.7c-.6.2-.4.4.4.4s1.2-.1.9-.4c-.3-.2-.8-.2-1.3 0m-14.3-.8c-.7-.2-1.3-.6-1.3-1s-.3-.5-.7-.3c-.4.2-.7.7-.7 1.1 0 .4.9.6 2 .6s1.5-.1.7-.4M135.5 40c1.4 0 2.8-.3 3-.6.4-.7-4.3-.6-5 .1-.2.3.7.5 2 .5m-26.7-8c.4 0 .7-.3.8-.7 0-.4-.1-.7-.3-.7s-.5.3-.8.7-.1.7.3.7m35.1 21.1c.5-.1.9-.3 1.2-.7.2-.4.1-.7-.3-.7-.5.1-.9.3-1.2.7-.3.4-.1.7.3.7m-3.2-1.8c-1.6 1-3 2-3.2 2.2s0 .3.4.3c1.2-.5 2.2-1.3 3.2-2.2l2.5-2.2-2.9 1.9zm-.7 7.6c.6-.1 1.3-.3 1.8-.7.6-.4.8-.7.4-.7-.6.1-1.3.3-1.8.7-.6.4-.8.7-.4.7m-19.7-41.4c0-.4-.5-.9-1.2-1.1-1-.4-1-.3-.3.6 1.1 1.3 1.5 1.4 1.5.5m-5.2 37.8c1-.8 1.5-1.5 1.1-1.5-.9.3-1.7.8-2.4 1.4-2.2 1.9-1 1.9 1.3.1m18-22.6c.5-.1.9-.3 1.2-.7.2-.4.1-.7-.3-.7-.5.1-.9.3-1.2.7-.2.4-.1.7.3.7m-.3 11.7c1.4 0 5.8-2.1 5.3-2.6s-5.4 1.4-6 2.1c-.3.2 0 .5.7.5m-29.7 7.2c.4 0 .7-.3.8-.7 0-.4-.1-.7-.3-.7s-.5.3-.8.7-.1.7.3.7m376.8-7.9c1.4-.3 2.9-.3 4.3 0 2.5.5 5.4-.2 4.1-1-1.1-.7-19.5.3-19 1.1s7.5.7 10.6-.1m179.3 12.2c0-.4-.8-.7-1.8-.7s-1.7.3-1.5.6c.5.9 3.3 1 3.3.1m-215.6-3.3c-.5.2-.1.4.9.4s1.4-.2.9-.4c-.6-.2-1.2-.2-1.8 0m44.1-5.2c.5-.9-6.4-1.2-9.3-.4-1.9.5-2.1 3.7-.4 4.1 1.5.3 9.9-.7 10.9-1.3 1.4-.4 2.9-.7 4.4-.8 2-.2 5-.5 6.6-.6s3.6-.3 4.5-.3 1.6-.4 1.6-.9-1.1-.7-3.4-.4c-9 1.1-15.4 1.4-14.9.6m-3.7-7.9c-1.2-.2-2.4-.2-3.6 0-1.1.2-.4.3 1.6.3s2.9-.1 2-.3m-61 14.2c0 .3 1.1.5 2.5.3.9 0 1.7-.2 2.5-.6-.8-.3-1.7-.4-2.5-.3-1.4 0-2.5.2-2.5.6m24.7-10.1c1.3.3 2.6.3 3.9 0 2.8-.4 5.7-.6 8.6-.7 6.6-.2 7.5-.4 5.1-1.3-.9-.3-4.3-.2-7.9.3s-6.8.9-7.3.8c-.8 0-1.6 0-2.4.1-1.4.2-1.4.2 0 .8m11.2 7.4c-2.3 0-3.4.3-2.8.7 1 .6 5.5.3 6.2-.4.1-.2-1.4-.4-3.4-.3m-4.5 2.3c-.6.2-.4.4.4.4s1.2-.1.9-.4c-.4-.2-.9-.2-1.3 0m-.2-1.7c-.5-.5-1.2-.8-1.9-.7-.8 0-1.2.3-1 .7.5.5 1.2.8 1.9.7.8.1 1.2-.3 1-.7M624.1 40c.8 0 1.5-.3 1.5-.7s-.5-.7-1-.7c-.6 0-1.1.3-1.5.7-.2.4.2.7 1 .7m-59.6 5.1c.7.1 1.5-.2 2-.7.6-.9-1.1-.9-2.5 0-.9.5-.8.7.5.7m-5.2-.3c-1.3.1-2.5.4-3.8.8-.2.2 1.2.3 3 .3s3.5-.3 3.8-.8-.6-.7-3-.3m150 8.3c1 .5 2.1.7 3.2.6 2 0 2-.1-.7-1-3-1-4.2-.8-2.5.4m-201.8-5.8c.6.4 1.4.5 2.1.4 2-.6 18.8-1.8 19.2-1.4.2.2-.1.7-.7 1.1-.8.5-.6.7.8.7s1.9-.3 1.8-1.3c-.2-2-3.4-2.3-12.5-1.2-4.6.5-9.1 1-10.1 1-1.3-.1-1.5.1-.6.7"/><path class="st0" d="M491.3 46.5c.6 0 1.2-.3 1.5-.7.2-.4 0-.7-.6-.7s-1.2.3-1.5.7c-.3.4 0 .7.6.7m45.2-.2c.2-.4.3-.9.1-1.4-.2-.6-.4-.4-.4.4s.1 1.3.3 1m-95.6 2.4c1.4.9 7.2.9 7.2 0 0-.4-1.8-.7-4.1-.7-2.9 0-3.8.2-3.1.7m-153.5-2.1c-.7.1-1.3.6-1.6 1.2-.2.6.1.9 1 .7.7-.1 1.3-.6 1.6-1.2.2-.6-.2-.8-1-.7M274 25.1c1.1.2 2.3.5 2.7.7 2.2.8 11.6.2 13.2-.8 1.4-.8 1.5-1 .4-.7l-3.4.8c-1.3.3-2.6.1-3.7-.7-1.2-.8-3.2-1.1-6.4-1-4.9.2-6.2 1-2.8 1.7m5.5 24.3c-.9.4-1 .6-.4.6.9-.1 1.7-.3 2.5-.6.9-.4 1-.6.4-.6-.8.1-1.7.3-2.5.6m11-15.1c-1.3.4-3.1.9-4 1.1-1.3.3-1.4.5-.7 1 1.4.9 1.6.8 4.5-.9 3.1-1.9 3.2-2.2.2-1.2m18.2 11c-.7.2-.3.3.9.4s1.8-.1 1.3-.3c-.7-.3-1.5-.3-2.2-.1M272 43c-.8.6-.8.6.1.3.6-.2 2.4-.8 4.1-1.3s3.2-1.3 3.4-1.9c.3-.7 0-.8-.9-.3-1.6.6-3.2 1-4.8 1.2-2 .3-3 .7-2.2.9 1 .3 1.1.5.3 1.1m-10.7-9.6c0 .8-.3 1.5-.9 2.1-.5.5-.6.9-.1.9.8-.3 1.5-.7 2-1.4 1.4-1.1 3-1.9 4.8-2.3 4.7-1.1 3.9-1.7-1.5-1.1-3.4.4-4.3.8-4.3 1.8m73.7 5.9c.4 0 .7-.3.7-.7s-.3-.7-.7-.7c-.4 0-.7.3-.7.7 0 .3.3.7.7.7m11.1-13.1c.1 0 .5-.3.7-.7s-.1-.7-.7-.7-1 .3-.7.7.6.7.7.7m-6.3-7c-.4-.3-.9-.3-1.4-.1-.6.2-.4.4.4.4s1.3-.1 1-.3m-199.1 9.9c.6-.5.9-1.1.8-1.3-.5-.5-1.9.5-1.9 1.4 0 .5.4.4 1.1-.1m209.4-.6c-.1.6.2 1.1.7 1.4 2 1.3 3.2.6 1.3-.8-1-.8-1.8-1.1-2-.6m-28 13.7c1.2.1 2.4-.5 3-1.6.7-1.4.7-1.5-.5-1-1 .4-1.9.7-3 .9-.9.2-1.6.6-1.6 1s1 .7 2.1.7m7.9-22.7c2.6 0 3.7-.2 3.2-.6s-1.9-.5-3.9-.1l-3.2.6 3.9.1zm-96.4 11.7c1.1-.5 1.7-1.1 1.2-1.2-.8 0-1.5.3-2 .9-1.1 1.1-1 1.1.8.3m-49.2-4.7l6-1.7c.8-.2 1.5-.6 2-1.3.2-.6-11.6 3-14.5 4.5-1 .5 1.5-.1 6.5-1.5m-12.2 7.4c1-.6 2.2-1 3.4-1.2.6 0 1.2-.2 1.6-.7.8-.7 1.7-1.2 2.7-1.4 2.1-.6 2.1-.7.5-.8-2-.1-15 5.6-15 6.6 0 .6 3-.5 6.8-2.5m437.3 158.8c-.2.4-.1.7.3.7.5-.1.9-.3 1.2-.7.2-.4.1-.7-.3-.7-.6.1-1 .3-1.2.7M171.1 27.6c.9-.6.8-.7-.5-.7-.9 0-1.6.3-1.6.7 0 .9.7.9 2.1 0M155.4 52c0 .2.7 0 1.6-.6 1.3-.7 2.8-1.2 4.3-1.5 3-.5 3.6-1.9.9-1.9-2.6 0-6.8 2.5-6.8 4m-11.5-12c.4 0 .7-.3.7-.7s-.3-.7-.7-.7c-.4 0-.7.3-.7.7 0 .4.3.7.7.7m12.7-2.8c1.5-.3 1.7-.5.7-.7-.7-.2-1.4 0-2 .4-.5.5 0 .6 1.3.3m-8-12.9c1.4-1.1 1.4-1.1-.4-.6-.9.2-1.7.6-2.5 1.2-1.2 1.1 1.4.6 2.9-.6m19.3 22.2c-.3.4.4.7 1.6.7 2.7-.1 4.9-.9 5-1.8s-8.7-1-9.5-.1c-.3.3.4.5 1.4.5s1.8.3 1.5.7m35.2 3.9c-.5.2-.1.4.9.4s1.4-.2.9-.4c-.5-.2-1.2-.2-1.8 0m-6.6-20.6c-1.5-.2-3.1 0-4.5.5-3 1-3.5 1.6-2.6 2.6.7.8 1.5.6 5.1-1.1 3-1.2 3.3-1.6 2-2m-1.2-6.3c-.5.2-.1.4.9.4s1.4-.2.9-.4c-.6-.2-1.3-.2-1.8 0M19.8 149.8c.2-.4.1-.7-.3-.7-.5.1-.9.3-1.2.7-.2.4-.1.7.3.7.5 0 .9-.3 1.2-.7M2.2 165.3c0 .4.1.6.2.4s.8-1.1 1.6-2.1l1.4-1.8-1.6 1.4c-.7.5-1.2 1.3-1.6 2.1m14-18.9c2.3-2.6 2.2-2.9-.4-1-1.2.9-2.2 1.9-2.2 2.2.1 1.2.8.8 2.6-1.2m407-97.5c2.6-.3 4.6-1.5 3.9-2.1-.3-.3-6 1.6-6.6 2.1-.2.2 1 .2 2.7 0m-66.9-16.7c-.5.2-.1.4.9.4s1.4-.2.9-.4c-.6-.2-1.2-.2-1.8 0m222.6-5.1c-.6.2-.4.4.4.4s1.2-.1.9-.4c-.3-.2-.9-.2-1.3 0m184.4 69.6c.8 0 1.2-.1.9-.4-.4-.3-.9-.3-1.4-.1-.5.3-.4.4.5.5M586.1 27.1c-.6.2-.4.4.4.4s1.2-.1.9-.4c-.4-.2-.9-.2-1.3 0m165 111.7c.8 0 1.2-.1.9-.4-.4-.3-.9-.3-1.4-.1-.5.3-.3.5.5.5m-17.8-23.9c.2 0 .3-.3.3-.7 0-.4-.3-.7-.7-.7-.4 0-.6.3-.3.7s.5.7.7.7M754 90.4c-.8-.2-2.5-.6-3.8-.9s-2.3-.3-2.3 0 .9.8 2 .9c2.9.4 6 .4 4.1 0m4.3 42l1.6.7c.1 0 .3-.3.6-.7s-.4-.7-1.6-.7c-1.8 0-1.8.1-.6.7m-24.7-20.7c0-.2-.5-.5-1.1-.7s-1.1-.1-1.1.3.5.7 1.1.7 1.1-.1 1.1-.3"/><path class="st0" d="M3 153.8c.6-.6 1.4-1 2.3-1.1.8-.1 1.4-.6 1.7-1.3 1.5-4.2 4-6.8 8.9-9.4 2.8-1.4 6.4-3.5 8-4.5 4.9-3.2 10.7-5.5 12-4.8.4.2-.7 1.3-2.4 2.5-1.7 1.1-3.3 2.3-4.9 3.6-1.8 1.6-1.7 1.6 1.1-.1 1.6-.9 3.8-2.4 5.1-3.3 3.6-2.5 7.4-4.8 11.4-6.6 2-1 4.2-2.1 4.9-2.5 2.5-1.4 4.8-2.1 4.8-1.4s-3.5 2.7-12.9 7.8c-2.6 1.4-8.4 5-17.8 11.1-.9.6-.8 1.1.2 3.7.5 1.2.9 2.5 1.2 3.8 0 .4-1.6 1.5-3.6 2.4-2.9 1.6-5.5 3.7-7.9 6-3.7 3.6-4.3 4.7-4.3 6.8 0 3.4-.3 5.9-1 7.5-.3.7-.4 1.5-.1 1.8s0 1-.6 1.6c-.7.8-.8 1.9-.4 2.8.9 2.5 2.5 1.3 2.6-2.1.1-3.5 1.6-6.7 2.9-6.1.6.2 1.2-.3 1.6-1.3.9-2.4 3.4-4.4 8.6-7.2 3-1.6 5.7-3.5 8.3-5.7 4.5-4.1 10.4-7.3 10.9-6 .3.8.6.8 1.5-.1.8-.7 1.8-1.2 2.8-1.6 1.5-.5 1.6-.4.8 1.4-.9 2-4.7 4.8-6.5 4.8-1.1.3-2.2 1-3 1.8-1.1 1-1.6 1.8-1.1 1.8 1.2.5 2.4 1.1 3.3 2l2.5 2-1.6 1.3c-2 1.6-3.3 1.7-4.9.1-1.1-1.1-1.2-1.1-1.6.5-.3 1.3-1.2 1.9-4 2.7-1.6.5-3.2.7-4.8.7-1.4-.3-2.4.7-1.3 1.4.5.3.3 1.3-.4 2.7-.8 1.6-.9 2.4-.4 3s.8.2.8-1.2c.1-1.2.5-2.4 1.4-3.3 1.6-1.7 10.9-4 11.8-3 .6.5 1.3.7 2.1.7 1.4 0 1.4 0 .1-1s-1.2-1.1 1.3-2.1c1.1-.6 2.4-.8 3.6-.8.5.2 1.1-.2 1.3-1 .3-1.1 6.7-5.3 8.1-5.3 1.2 0-1.5 3.1-3.8 4.3-1.7 1-3.3 2.2-4.7 3.6-.8.9-1.7 1.7-2.8 2.2-.6.2-1.2.6-1.5 1.1-.9 1.2-3 1.5-4.9.7-.9-.4-1.3-.2-1.3.6 0 .6-.4 1.2-.9 1.2-.7 0-.7.2 0 .9s1.4.7 3.1 0c2.4-.9 3.2-.8 2.4.6s-4 2.2-8.8 2.3c-7.6.1-10.2 2.6-3.8 3.8 2.4.5 2.4.4 1.2-1s-.7-2.3 1.8-2.1c5.1.4 8.5-.3 10.5-2.1 1.1-1 2.3-2 3.5-2.9 1.3-.8 1.3-.8-.2-.5-2.4.6-2 0 2.4-3.5 6.4-5 8.9-5.9 8.9-3.2 0 1-1.2 1.4-3.3 1.1-.4-.1-1.7.8-2.7 1.9-1.6 1.7-1.8 2.1-.8 2.6 2.5 1.4.5 4.7-5 8.2-3.3 2.1-.7 2.1 4.8 0 5.2-2 6.4-1.8 4 .8-1.8 1.9-1.1 2.1 2.4.7 2.2-.8 4.5-1.3 6.9-1.5 4.3-.5 4.5-.4 4.5 1 0 .8-.4 1.6-1.1 2-1.4.5-1.4 1.7 0 1.7.7 0 1.1.8 1.1 2.4 0 1.2.2 2.3.7 3.4.5.8-.3 1.7-3.1 3.7-2 1.5-3.9 2.6-4.2 2.4s-.5.7-.5 1.9c0 1.7.5 2.5 2.2 3.3s2.1.9 2.1.2c0-1.4 5.2-6.4 6.6-6.4.7 0 1.2-.4 1.1-.8-.2-1.1 4.9-4.2 12.3-7.5 7-3.1 8.9-3.3 5.6-.6-1.3 1.1-2.5 2.1-2.7 2.2s-.1.4.2.7 2.3-1.4 4.4-3.7 4-3.8 4-3.3c0 1 2.9-.4 3.8-1.8.8-.8 1.7-1.3 2.8-1.4 2.9-.7 7.3-2.5 6.9-2.9-.2-.2-2.4.3-4.9 1.1s-5.7 1.6-7.1 1.9c-1.4.3-2.7.8-3.9 1.5-1.6 1.2-3.5 1.3-2.9.3.2-.4-.1-.7-.7-.7-.7-.1-1.2-.7-1.1-1.4 0-1.4 2.9-2.8 6.7-3.3 5.3-.7 18-4.9 19.8-6.5.6-.6 4-1.7 7.6-2.6 3-.7 5.9-1.6 8.8-2.6 1.6-.7 5.4-1 11.8-1 4.8 0 9.6-.2 14.4-.7 7.7-1.1 38.3-1 38.3.2 0 .3-1.5.6-3.4.6-8.2.2-10.3.5-11.5 1.6-1.2.8-2.5 1.2-3.9 1.2-1.9 0-2.6.3-2.6 1.1 0 1.3-1.5 1.4-2.6.3-.6-.6-1.2-.6-2.2 0-1.8 1-3.2 1-2.6.1.2-.4.1-.7-.3-.7-.5 0-.9.4-1 .8-.4 1.2-14 1.7-16 .6-1.2-.7-2.8-.6-7.2.4-3.1.7-7.1 1.5-8.9 1.9-8.8 1.8-10.9 2.5-9.8 3.4.9.8 2 .6 6-.6 6.7-1.9 13.7-3 20.6-3.4l5-.4-3.6 1.8c-2 1-5.8 2.9-8.6 4.1l-5 2.3 3.6.5c1.6.3 3.2.3 4.8.2 1.4-.4 1.7-1.6.5-1.6-.4 0-.6-.3-.4-.6s1.9-.9 3.8-1.2c1.4-.1 2.8-.5 4.1-1.1 1-.8 9.6-2.3 10.4-1.8.4.2 1.4-.1 2.3-.6 1.7-1.1 3.4-1.5 9.5-2.4 1.9-.2 3.8-.9 5.4-1.8 1.8-1 3.9-1.6 5.9-1.8 3.8-.4 4.1-.4 4.5 1.1.5 1.9 2.6 2 5.5.5 2.4-1.3 6.4-1.4 8.4-.3 2.5 1.4 1.5 1.8-4 1.7-3-.1-5.6.2-5.8.6-.6.5-1.4.7-2.1.6-1 0-1.8.3-1.8.7s-1.6 1.6-3.7 2.6c-3.8 1.9-8.9 2.4-11.2 1.1-2.1-1.1-9-1.9-8.4-.9.3.6-.3 1-1.9 1.4l-2.4.5 2.5.5c1.4.3 3.3.7 4.3 1 1.5.4 1.5.3-.3-.6-2-1-2.1-1-.5-1.5 2.2-.7 8.8 1.1 8.4 2.3-.2.6.2.9 1.1.9s1.4.4 1.4.8-.2.6-.5.5-5 .3-10.6 1.1-10.5 1.4-11.1 1.5c-.7.1-1.4.3-1.9.8-2.1 1.6-10.4 3.6-17.4 4-4.1.2-8 .7-8.6 1.1s.8.5 3.6.2l4.6-.4-1.7 1.4c-1.2 1-3.4 1.6-7.2 1.9-3 .3-6.5.6-7.9.9-3.9.6-1.1-1 3.5-2 2.1-.4 3.6-1 3.4-1.2-.5-.5-20.7 4-23.7 5.3-4.2 1.8-8.6 3.4-13 4.7-2.8.8-5.3 1.8-5.6 2.2-.5.9.8.9 2.4.1 1.8-.6 3.6-1 5.5-1.1l4.3-.5-2.9 1.1c-1.6.6-4.9 1.8-7.4 2.6s-4.4 1.6-4.3 1.7c.4.4 13.3-1.7 16.6-2.7 2.2-.8 4.4-1.9 6.3-3.2 1.8-1.2 3.8-2.2 5.8-2.8 1.4-.3 2.7-.9 2.9-1.5.3-.9 3.3-1.6 13.3-3 3.8-.5 3.4.3-.5 1.1l-2.7.5 2.6.1c1.4 0 2.9.4 3.1.9s.7.6 1.3 0c.5-.5 1.2-.8 1.9-.8 1.1-.2 2.1-.5 3-1 2-1.1 4.2-1.3 10.4-1.2 2.1 0 3.6.4 3.4.7-.6 1-8.7 2.4-10.7 1.9-1-.3-2-.1-2.2.3-.6 1.1 7.3 1.5 11.6.7 2.9-.6 4.2-.5 5.2.1.8.5 3.9 1 6.9 1.2s6.6.5 8 .7c1.5.2 3.1-.1 4.5-.7 2.9-1.5 12.7-2.9 13.6-1.9.6.6.2.8-1.2.8-2.1 0-2.6 1.2-.7 1.7.8.2.4.4-.8.4-1.7.2-3.4.7-5 1.5-1.7.8-3.4 1.4-5.1 1.9-1.1.3-2.2.8-3.1 1.6-.9.7-2.1.9-3.1.6-1-.2-2.1-.4-3.1-.4-.7 0-.9-.5-.6-1.5.5-1.6-.9-2-2.3-.7-.6.6-1.3.5-2.5-.4-1-.6-1.9-1-2.2-.7-.7.7 1.2 3.2 2.5 3.2 1.1.1 2.2.4 3.2.8l2 .8-2 .7c-2.5.9-5.5.2-5.5-1.3 0-1.2-.4-1.3-2.5-.4-1.1.5-1.2.6-.3.7 1.7.1 3.3 2.1 2 2.5-10.5 3.2-19.4 6.8-18.9 7.8.2.3 2.3 0 4.8-.7l10.2-2.9c3.1-.9 7-2 8.6-2.6 2.1-.6 4.2-.8 6.4-.6 3.2.4 3.4.5 2.2 1.4-1.4.7-2.9 1-4.4 1-2 0-3 .3-2.6.8.5.9-.3 1.6-6 5.6-2.1 1.5-3.5 2.8-3.1 2.9s2.4-1 4.5-2.6c3-2.3 4.2-2.8 6-2.5 1.5.2 3-.1 4.4-.8 1-.6 2.1-1 3.2-1.2.9-.2 1.7-.5 2.5-1.1 1.1-.7 2.4-1.1 3.8-1.1 1.3 0 2.4-.3 2.4-.7s-1.3-.6-2.9-.4c-2 .2-2.9 0-2.9-.7s1.3-1.1 4.1-1.2c5.3-.3 7.3 0 7.3 1.4 0 .6.3.8.7.6.4-.2.5-.7.4-1.1-.6-1 3.7 1.4 4.7 2.6.5.6 1.1 1 1.9 1.1.5 0 1 .3 1 .7s.6.7 1.4.7 1.5.4 1.6.8c.3.9 5.5 2.2 5.9 1.5.2-.3-.8-1.1-2.1-1.7-3-1.4-3.1-2.3-.5-3.3 1.5-.6.9-.7-2.8-.3-5.2.5-7-.6-4.5-2.5 1.1-.8 3.3-.9 9.9-.6 4.7.2 9.3.4 10.2.4s1.5.3 1.3.7 1 .9 2.6 1.2c1.6.3 3.2.8 4.7 1.5.9.6 1.6.8 1.6.4s-.9-1.1-2-1.6c-1.8-.9-1.2-1 7.3-1.2 5.5-.1 9.5.1 10 .5.3.4 1 .5 1.4.2l.2-.2c1.1-.9 12.6 0 12 .9-.3.4.2.5 1.3.1 1.3-.4 8.3-.7 10.6-.4.2 0-.1.4-.5.9-.6.7-.6 1.2.4 2.3 1.2 1.4 1.2 1.4-.7.9-1.6-.4-2.2-.1-3.1 1.4-.7 1.3-2.2 2-3.6 1.8-1.5 0-2.6.4-2.8 1.1-.5 1.4-5.8 3.4-8.1 3.1-1.1-.1-1.7.1-1.6.7s-.1.9-.5.9-.7-.3-.7-.7c0-.4-.3-.7-.7-.7-.4 0-.7.5-.7 1.2s-.4 1-1.1.8-1.1 0-1.1.6-.6 1.1-1.4 1.4c-.7.1-1.3.7-1.4 1.5 0 .7.5 1 1.3.8s2.5.4 4.1 1.2c2.1 1.1 4.2 1.5 8 1.5 2.9 0 5.4-.3 5.6-.6.7-1.1-1.6-1.5-3.5-.7-1.3.6-2.8.6-6.1-.2-2.4-.5-4.3-1.2-4.3-1.5 0-.8 2.1-1.8 5-2.4 1.3-.3 2.5-.8 3.5-1.6.7-.8 1.9-.9 4-.6 7.4 1.1 11.3 1.1 16.5.1s5.7-1 6.5.2c.5.6.9 1.4 1 2.2 0 .5.3.9.8.9.4 0 .6-.3.4-.7-.2-.4-.1-.9.3-1.1 1.1-.7.9-1.8-.4-1.8-1.5 0-1.3-1.4.2-1.4l8.4-.4c3.9-.2 11.5-.5 16.7-.7 5.9-.2 9.9-.7 10.4-1.2s0-.7-2.4-.3c-4.8.8-2.7-.6 3.2-2.2 4.1-1.1 8.6-1.3 24-1.5 32.9-.4 56.6-1.1 67.8-2.2 2.3-.2 6.2-.5 8.7-.6 2.1 0 4.1-.3 6.1-.9 1.8-.6 3.6-1 5.5-1.2 2.4-.2 5.4-.7 6.6-.9 2-.4 2.3-.3 1.9.8s.1 1.3 9.7.8c5.6-.3 10.8-.8 11.5-1.2s4.4-.7 8.3-.8c3.8 0 7.6-.3 11.4-.9 2.4-.4 4.8-.9 5.4-.9.7-.1 1.5-.3 2.1-.6 1.1-.4 2.1-.6 3.2-.9 7.9-1.7 9.6-1.9 12-1.9 1.5 0 2.7-.3 2.7-.7s.8-.8 1.8-.8c.8.1 1.6-.2 2.2-.8.8-.8 1.7-1.4 2.7-1.8 1.4-.6 1.8-1 1-1.1s-1.3-.4-1.3-.8 1.8-.7 4.1-.6c3.8.1 3.9.1 1.6.7s-2.1.5.7.3c1.8-.2 4.5-.3 6.2-.3s3.3-.4 3.8-1c.8-1 5.8-1.5 11.8-1.3 1.6.1 2.5-.2 2.3-.6s-1.7-.7-3.3-.7c-3 0-4-1.4-1.2-1.6.9-.1 2.6-.2 3.8-.4 3.2-.4 7.5-.3 8.2.1.8.1 1.7 0 2.5-.4 2.8-1.1 9-1.6 9-.7 0 .4.3.7.7.7.4 0 .5-.5.3-1.1-.3-.8-.1-1 .7-.6.6.3 1.2.1 1.2-.4 0-2 9.1-3.8 15.7-3 1.6-.1 3.1-.3 4.7-.6 3-.6 3.7-.6 4.4.4.6.8 1.6 1 3 .8 1.2-.2 2.2-.1 2.2.2 0 .7-5.2 1.3-6.1.8s-12.6-.1-13.6.5c-.7.3-1.4.4-2.2.2-.8-.1-1.2 0-.9.3 1.1 1.2-1.5 2.4-4.7 2.1-1.9-.1-3.2.1-3 .4s-.8.7-2.3.7c-4.5 0-14.5 1.6-14.1 2.3.2.3-.1.6-.7.6s-1.1.3-1.1.7.8.7 1.8.7c1.2 0 1.7-.3 1.4-1s.3-1 2.5-1c5.5.1 1.9 1.9-8 4-3.4.7-6.3 1.6-6.3 1.9s.5.6 1 .6c.7.1 1.4.6 1.7 1.3.7 1.2.9 1.2 4.5-.1 2.7-.9 5.4-1.4 8.2-1.6 4.2-.3 8.6-1.8 7.8-2.7-.2-.2-1.2-.1-2.2.3-1.2.4-2.4.6-3.7.6l-1.9-.1 2.2-.6c1.2-.3 3.4-1.1 5-1.7 2-.7 3.1-.9 3.7-.4s2 .4 4.3-.4c7.2-2.3 12.2-2.9 17-2 1.3.2-2.8 2.2-4.7 2.2-1.8.2-3.6.6-5.3 1.1-2.6.7-5.4 1.1-8.1 1.1-3.4 0-4.5.2-4.3.9.2.5-.7 1.4-1.9 2.1-2.2 1.2-2.2 1.2-.5 1.7 1.2.4 1.9.2 2.3-.7s1.2-1.1 2.9-.8c1.3.3 1.9.2 1.4-.1s1.5-.6 4.5-.6 5.3.3 5.3.6.4.4.8.1c1.5-.5 3.1-.7 4.7-.7 1.4 0 2.8-.2 4.2-.5.2-.2 3.9-.2 8.1 0 9.1.4 10.9-.6 3.4-1.9-2.9-.6-6-.6-8.9 0-5.8 1.3-5.8.5-.2-1.8 3.2-1.3 5.7-1.9 6.7-1.6 5.1 1.6 6.4 1.7 7.4.7.8-.6 1.7-1 2.7-1 .7.1 1.4-.1 2-.6.2-.3-4.8-.6-11-.7-9.5-.2-15-.8-15-1.8 1.8-.3 3.7-.4 5.5-.4 3-.1 5.7-.5 5.9-.8.6-.9 5.9-1.5 7.6-.8 1.2.5 1 .6-.8.6-.9-.1-1.8.1-2.6.6-.4.7 6.9.2 7.6-.5s21-.2 24.5.6c1.6.4 9.6.7 17.9.8s21.2.2 28.6.3 13.9-.1 14.3-.4c1-.8 12-1.1 13.1-.4.6.3 1.3.3 1.8-.2 1.1-1.1 1.5-1-17.7-1.2-22.8-.2-27.8-.3-27.5-.6 1.1-1.1 36.1-2 40.7-1 3.6.8 5.7.9 6.3.3.8-.9-.8-1.4-4.9-1.7-2.3-.2-4.3-.6-4.3-1s1-.6 2.3-.3c1.3.2 2.5.1 3.8-.2 1.4-.6 1.4-.6-.2-.7-2.4-.1-2-1.5.5-1.5 2.7 0 4.5.7 4 1.5-.2.4 0 .6.4.6s.7-.5.4-1.1c-.7-1.8 4.2-3.3 11.6-3.6 11.8-.4 8-1.1-6.7-1.2-7.8 0-16.1 0-18.4.1s-4.1-.2-4.1-.6-.8-.5-2.2 0c-2 .5-4.1.6-6.2.4-2.2-.2-4.3-.1-6.5.2-2.3.5-2.4.5-1.2-.9.9-1 1.4-1.2 1.8-.5s.8.7 1.5.1c1.3-1.1 7.5-2 8-1.1.3.4 1.7.5 3.8.1 1.8-.4 12.8-.5 24.2-.4 17.3.2 21.2.5 23 1.4 1.3.7 2.7 1.2 4.1 1.6 1.3.3 1.9.8 1.7 1.4-.3.7 1.2.9 6.9.8 4.1-.2 8.2.2 12.2.9 5.8 1.3 24.3 1 48.3-.8 8.1-.6 20.8-1.5 28.3-2s13.9-1.1 14.2-1.4-4-.4-9.5-.3c-4.4.2-8.9.1-13.3-.4-1.8-.3-3-.3-2.8 0 .4.4 1 .6 1.6.5.6 0 1 .2.7.4s-6.6.6-14.3.8-14.2.6-14.6 1c-1.1 1-14.8.9-15.4 0s-9.6-1.7-9-.8c.3.5 0 .8-.7.8s-1-.3-.8-.6-1.3-.9-3.3-1.1-3.5-.7-3.2-.9c.9-.9 10.3-.7 13.2.2 1.8.8 3.8.9 5.7.3 1-.4 2.1-.5 3.2-.4.3.2 2.3.1 4.4-.4 3-.6 21-1.6 28.9-1.7.7.1 1.5-.3 1.9-.9.3-.7-1.5-.8-7.1-.6-4.6.1-7.5 0-7.5-.5s-.6-.8-1.3-.8c-.9 0-.7-.3.5-.8 1-.4 2.3-1 3-1.4s4.1-.7 7.5-.7c8.4 0 14.2-.7 12.9-1.6-.6-.4 1-.6 4.4-.3 4.2.3 4.9.2 3.3-.4-1.4-.5-5.4-.5-12.5 0-4.8.4-9.6.4-14.4.1-2.8-.4-5.6-.6-8.4-.6-2.5 0-4.5-.3-4.5-.6 0-.8 5.8-2.3 8.6-2.3 1.2 0 2.1-.4 2.1-.8s-.8-.6-2.1-.3c-2.4.5-3.9-.9-1.6-1.6.8-.2 1.5-.7 1.5-1s.9-.6 2.1-.6 2.2-.4 2.4-.9c.3-.7.5-.7 1.3 0 .5.5 1.1.8 1.7.9.4 0 .3-.3-.3-.7-.7-.5-.1-.8 2.2-1.1 1.7-.2 4.5-.6 6-.8s5.4-.6 8.6-.8c7-.5 8.9-1.7 2.7-1.7-2.4 0-4.5-.3-4.6-.6s-2.2-.4-4.9 0c-4.1.6-13.4.8-22.9.5-1.8-.1-5.5 0-8.2 0-9 .2-30.4-.4-30.9-.9-.5-.3-1.1-.5-1.8-.5-2.2 0-2.2-1.4 0-2.5 1.2-.6 2.2-1 2.2-.7s.7 0 1.6-.5c.7-.5 1.6-.7 2.5-.7 1.1-.1 2.1-.4 3-.9 1.2-.6 2.6-1 4-1.1 1.2 0 1.7-.3 1.4-.8s-1.8-.6-4.2-.4c-6.1.7-13.7.7-14 0-.2-.4.5-.8 1.4-.9 3.3-.4 4.1-1 2.5-1.6-1.4-.6-1.3-.6.2-.6 1.1 0 1.6-.5 1.6-1.5 0-.8.3-1.5.7-1.5s.7.5.7 1.1.3.9.7.7c.4-.4.5-.9.3-1.4-.3-.7-2.1-1.1-6.3-1.3-3.3-.1-5.8 0-5.6.3s0 .6-.4.6c-.5-.1-1-.4-1.2-.8-.3-.6-2.8-.7-8.4-.4-6.2.3-8.1.7-9 1.7-1 1.2-1 1.2 0 .4.7-.5 4.2-.9 8.6-1 6.9-.1 7.4 0 7.4 1.3s-.7 1.5-4.9 2c-5.3.6-7.3.3-6.5-1.1.4-.7.3-.7-.5 0-1.1 1.1-7.8 1.2-7.8.2 0-.4.6-.8 1.3-.8.9 0 1-.2.3-.4s-.8-.5 0-1 .7-.6-.2-.6c-.6 0-1.2.3-1.5.9-.2.7-.5.7-1.4 0-.8-.6-1.9-.8-2.9-.5-1 .3-2 .1-2.8-.6-.5-.6-2.5-1.1-4.2-1.1-3.8-.1-8.3-1.7-6.2-2.2 1.9-.1 3.9.1 5.8.5 5.5 1 7.1 1 6.5.1-.5-.5-1.3-.8-2-.8-1.3 0-1.4-.1-.4-.7.7-.4 2.9-.5 5.6-.1 2 .3 4 .4 6 .3 1.5-.1 3 0 4.4.5 2.7.5 5.4.6 8.2.3 4.8-.4 5.2-.5 3.3-1.2-.9-.2-1.8-.7-2.5-1.3-.2-.3-3.1-.7-6.5-.9-6.4-.4-14.9-3.1-14.3-4.5.2-.4.6-.6 1.1-.5.4.1 5.4.2 11.1.2 5.4 0 10.7.2 16.1.7 6.6.9 15.8 1.5 13.4 1-.9-.2-1.6-.8-1.6-1.4s-.7-1-2-1.1c-3.2 0-5.3-.8-4.9-1.9.3-.8-.4-1-3-.9-2.8 0-5.6-.3-8.4-.7-3.6-.5-7.1-.9-10.7-.9-2.6 0-5.3-.2-7.9-.7l-2.2-.6 2.2-.2c2.3-.1 4.6-.1 6.9 0 4.7.2 8.5-.9 7.3-2.2-.7-.7-6.1-1-9.2-.4-3.6.4-7.3.6-11 .5-1.5-.1-1.6-.2-.8-1.2s.5-1.1-3-1c-2.1.1-4.2.1-4.6.1s.8-1 2.5-2.1c3.2-1.9 7-2.7 10.7-2.4l7 .5c5.4.4 5.9.3 5.4-.8-.7-1.8 1-2.5 6-2.5 2.8 0 4.3-.3 4.1-.7-.7-1.1 2.5-.9 5.9.5 2.5 1 3.2 1 3.7.3.5-.6 1.4-.8 2.1-.4 1 .3 1.5.2 1.5-.4s.9-.8 2.6-.5c2.6.3 2.6.3.9-.8-2.1-1.2-4.2-2.2-6.4-3.2-3.7-1.6-4.9-2.5-5.5-4.1-.9-2.3-3.4-3.1-17.8-5.6-6.2-1.1-13.3-2.6-16.8-3.6-4.4-1.3-5.3-1.7-5.6-2.5-.2-.6 0-.8.5-.5 1.8.5 3.6.7 5.5.7 2.5.1 5 .6 5.5 1 .9.6 1.9.9 3 .8 1.7-.1 1.8-.2.6-.4-.9-.2-1.6-.6-1.6-.9 0-.6 3.6-.4 10.7.7 1.6.3 3.2.4 4.8.2 1.6-.6.2-1.7-2.4-1.7s-5.3-1.1-5.3-2.1c0-.3 3-.8 6.8-.9s7-.5 7.3-.8-.1-1-.9-1.6c-1.3-1-1.3-1.1.1-1.1 1.8.2 3.6.5 5.4 1 9.3 2.4 25.7 3.2 25.7 1.2 0-.3-1.3-.8-2.9-1-1.9-.3-2.9-.8-2.9-1.6s.5-1 2.4-.7c1.5.3 2.6.2 2.9-.3.2-.2.1-.6-.1-.7-.1-.1-.2-.1-.4-.1l-4.2-.3c-2.9-.2-12-1-16.5-1.5-1.6-.2-7.5-1.4-18.6-3.8-3.1-.7-3.1-.7 2.5-.8l5.7-.1-3.8-1.8c-4.3-2-4.7-2.1-4-1 .3.4-.8.7-2.9.7s-3.1-.3-2.8-.8-.2-1-1-1.2-1.5-.7-1.5-1.1.8-.5 2-.2c2.3.6 2.4.6 6.6.4 2.8-.1 3.1-.3 2-1.1-1.8-1.4-1.6-2.8.4-2.3 1.3.4 1.4.3.5-.3-1-.5-2.1-.8-3.2-.7-1.8 0-2 .1-.7.7s1.2.6-.5.7c-.9.1-1.8-.3-2.3-1-.4-.7-1.2-1.1-2.1-1.1-1.9 0-5.5-1.5-5.5-2.4 0-.3-1.1-.5-2.4-.5-1.3 0-2.6-.3-3.8-1-1.3-1-1.3-1 .6-1.5s6.7.6 9.5 2.3c1.7.7 3.5 1.2 5.4 1.3 2.1.2 3.4.2 2.9 0-1.7-.7-.9-1.7 1.2-1.7.9.1 1.8-.2 2.5-.7.5-.8-1-1.1-3.9-.8-2.2.2-5-1.3-5-2.6 0-1.1.6-1.2 5-1 1.8.1 3-.1 2.6-.5-.6-.7-1-.8-3.7-.9-1.2-.1-1.7-.4-1.4-1.1s-.6-1.2-3.8-1.6l-4.1-.8 4.7-.8 4.7-.8-5.4-.5c-9.5-.9-12.4-1.4-13.4-2.4-.4-.4-.7-.8-.9-1.4 0-.7 5.6-.4 6.1.3.4.5 1 .7 1.7.7 1 0 1-.1.2-.7-.5-.3-.6-1-.3-1.5.3-.4.7-.6 1.2-.5.7.1 1.4 0 2.1-.3 2.6-1.3 8-1.2 10.8.2 2.1 1.1 3 1.2 3.8.6 1-.5 2.1-.7 3.2-.5 1.2.2 2.2 0 2.3-.3s1.7 0 3.6.8c2.8 1.2 3.4 1.3 3.4.4 0-.6-.5-1.1-1.1-1.1-.6 0-1.1-.4-1.1-.8s1.1-.7 3-.4c12.3 1.6 14.5 2.1 17.6 3.8 3.8 2 6.5 2.5 3.9.6s-2-2.7 1.8-2.1c5.9.9 15.3 1.1 14.8.3-.6-.6-1.4-1.1-2.2-1.4-1-.4-1.6-1-1.3-1.4s-.6-.9-1.9-1.1c-4.7-.8-17.4-2.5-18.8-2.5-4-.1-9.7-1.1-10.1-1.7-.3-.5 1.2-.6 4.3-.4 2.6.2 4.9.1 5.1-.2.5-.7-12.8-1.8-31-2.5-2.5-.1-4.7-.4-5-.7-.8-.8-8.5-.6-15.1.4-4.6.7-6.3.7-7.3 0s-1.4-.6-1.7 0-.5.6-1-.1-1.5-.9-3.5-.5c-5.3 1-9.2.9-9-.2.1-.6-.2-.8-.9-.6s-1.1 0-1.1-.8-.2-1-.9-.3c-.5.5-1.1.8-1.7.9-1.4 0-6-3.2-5.7-4 .1-.4 1.9-.6 4-.6 2.9.1 3.6 0 3-.7-1.2-1.2-1.1-2.1.2-1.6.8.2 1.6.1 2.3-.4 1-.6-.1-.7-4.1-.5-6.4.3-11.8-.6-13.3-2.1-.5-.5-1.1-.9-1.8-1.1-.4-.1-.7-.4-.7-.8 0-.6 1-.7 3-.4 1.7.3 4.3.6 5.9.8l2.9.4-2.2-1c-1.4-.6-2.8-1-4.3-1.1-2.7 0-5.2-.7-5.2-1.5 0-.4.6-.6 1.3-.6 1.4-.2 2.8-.5 4.1-1.1l2.9-1h-2.7c-2 0-4.1.3-6.1.6-8.1 1.6-8.1 1.6-8.1 0 0-.8-.3-1.3-.7-1-.4.4-.5 1-.3 1.5.5 1.3.2 1.3-2.2.4-1.6-.6-2.2-.4-3.6 1-1.1 1.1-2.2 1.6-3.2 1.4-1.6-.4-2 .8-.6 1.8.8.7 1.6 1.4 2.3 2.3 1.1 1.3 1.2 1.8.5 2.3s.2.8 2.1 1.1c3.4.5 4.9 1.5 4.9 3.1 0 .8-.5 1-1.8.6-2.2-.5-4.8.1-4.2 1.1.2.4 1.4.7 2.7.7 1.8 0 2 .2 1.1.7-1.3.7-26.1 2.3-37.8 2.4-14.1.1-54.2-.1-57.3-.3-1.8-.1-4.3-.1-5.5-.1s-2.3-.2-2.3-.6 1.1-.7 2.4-.7c3 0 3.8-.8 1.8-1.9-1.5-.8-1.4-.9.9-1.3 4.2-.8 22.1-2.7 29.8-3.1 6-.4 7.2-.6 6.5-1.4s-2.1-.9-6.3-.5c-3 .3-5.6.7-5.8 1s-2.1.6-4.3.6-6.5.3-9.7.5-8.6.6-12.1.8-6.7.4-7.2.5-.7-.3-.6-.9c.2-.8-.5-.9-3.2-.5-1.6.2-3.1.7-4.5 1.5-.7.6-3.2 1-6.8 1.1-3.2.1-6 .4-6.4.8-1 1-2 .8-1.6-.3.2-.7.1-1.4-.3-2-.5-.9-.8-.9-1.3 0s-1.1.9-3 .2-2.8-.6-5.2.7-3 1.4-3.7.4c-.9-1.2-4.3-1.6-3.5-.4.2.4-.2.7-1 .7-.7 0-1.4-.3-1.7-.9-.2-.5-.5-.7-.8-.4s-.1 1.2.4 2c.8 1.3.8 1.6-.1 2.2-1.2.8-8.3 2-15 2.6-2.6.2-5.9.5-7.5.7s-7.5.7-13.2 1.1-12.5 1.1-15 1.5c-6.1.9-6 .9-5-.4.7-.9.7-1.1-.3-1.1-.6-.1-1.1.4-1.2 1 0 .6-.5 1.1-1.1 1.1-.6 0-1.1-.3-1.1-.7 0-1.5 2.4-3 4.7-3 1.4 0 2.5-.4 2.5-.8s-.8-.6-2-.4c-1.4.3-2.9.5-4.3.6-1.5.1-2.3.5-2.3 1.3s-.2.8-.5.3c-.5-.8-8-1.3-16.5-1.1-4.3.1-4.5.2-4.5 2 0 1.6.3 1.8 1.6 1.5.9-.2 1.8-.2 2.6.2.7.4.4.7-1.1 1-1.1.2-3.5.8-5.2 1.2-2.7.6-5.5 1-8.2 1.2-6.4.4-10.6.8-18.7 1.7-3.5.4-8.5.9-11.1 1.1-5.9.5-10.9 1-15 1.6-2.1.3-4.3.4-6.4.4-1.3-.1-2.7.1-3.9.4-1.6.4-3.3.6-5 .6-2.4.1-7 .4-10.4.6s-12.5.6-20.4.7c-13.8.2-18.1.6-19 2-.2.4-3.9.8-8.1 1-6.7.3-7.7.2-7.3-.8.3-.8 0-1.1-1-1.1s-1.3.3-1 1.1 0 1.1-.5 1.1c-.8.2-1.6.6-2.2 1.1-.9.9-3.2 1.2-8.8 1.4-4.2.1-8 .5-8.5.9-.6.5-1.3.8-2 1.2-.6.2-.1.4 1.1.3 7.4-.3 6.8.8-.9 1.7-4.7.5-5.7.5-6.4-.5-.5-.7-1-.9-1.3-.4s-1.7.8-3.1.7h-2.6l3.6-1.4c2-.8 4-1.3 4.4-1.1.5.1 1.1-.2 1.2-.7.6-1.5-1.4-1.3-7.5.8-5 1.7-6.2 1.9-18.9 1.9-7.5 0-14.2.3-15 .6s-1 .6-.5.6.7.4.5.8c-.7 1.1-5.1.9-6.1-.4s-.6-1.5 3.2-2.1c1.7-.3 3.4-.8 5-1.5 4.3-1.2 8.8-2 13.2-2.6 25.4-3.7 24.3-3.5 20-3.6-3.1-.1-3.1-.2-1.8-1.3s1.3-1.1-.7-.6c-1.2.3-4.4.8-7.2 1.3-2.2.3-4.5.8-6.6 1.5-1.1.5-3.7.5-8.8-.1-6.4-.8-7.4-.8-9.7.3-1.3.7-2.9 1-4.4.7-.9-.3-1.8-.2-2.7.2-1.4.6-2.8 1-4.3 1.2-3 .4-3.4.4-3.1-.6.3-.8 0-1.2-.7-1.2s-1 .4-.7 1-.4 1.2-3 1.5c-2.9.6-5.7 1.6-8.4 2.9-5.3 2.6-13.4 4.4-10.9 2.3.6-.4 1-1.1 1.3-1.8 0-.4.5-1 1.2-1.2s1-.6.9-.8-2.7.3-5.6 1.1c-3.9 1.1-5.4 1.3-5.8.6-.7-1.1-4.7-.3-10.3 2-2.5 1-5.2 1.7-7.9 2-1.8.1-3.6.4-5.4 1-1.5.4-3 .5-4.5.3-1.9-.1-3.9.1-5.7.8-1.6.6-3.3.9-5 .9-2.8 0-5.5.2-8.2.7-6.2.9-7.9.8-6-.4.5-.3.8-.8.7-1.4-.2-.5-1.4-.2-3.1.6-1.2.6-2.5 1.1-3.8 1.4-.5 0-.9.3-.9.6s-1.2 1.1-2.7 1.6-3 1.2-3.3 1.3-.5-.2-.2-.8c.3-.8 0-1-1.1-.7-1.1.3-2.1.8-3 1.3-.8.5-4.7 1.4-8.6 2.1S98.8 69 93.2 70.4c-4 1.1-8 1.9-12.1 2.5-1.7.2-3.2 1-4.4 2.2-1.3 1.2-3 2.2-3.7 2.2-1.3.2-2.5.7-3.6 1.4-1 .7-2.1 1.2-3.3 1.5-.5 0-2.5 1.5-4.5 3.3-2.8 2.6-3.1 3.2-1.8 2.8 1-.3 2-.8 2.8-1.6 1.8-1.8 6.9-4.1 9-4 2.2-.3 4.4-1 6.4-2 6.5-3.1 24-8.6 27.6-8.7 2.3-.1-1.1 2.1-4.3 2.8-7.1 1.6-36.7 14.2-41.1 17.8-2.3 1.5-4.7 2.8-7.2 3.9-5.2 2.5-10 5.6-14.4 9.3-1.2.9-2.3 1.6-2.5 1.4-.5-.5-4.6 3.5-4.6 4.4 0 .4-1.1 1.6-2.5 2.7s-2.5 2.4-2.5 2.9c0 1.8 1.4 1.8 3.8.1 3.3-2.5 5.8-3.2 3-.9-.8.7-1.7 1.4-2.6 1.8-1.8 1.1-3.5 2.3-5.1 3.7-2.6 2-5.1 3.6-5.5 3.6-1.2 0-10.6 9-10.6 10.1 0 1.4-2.1 3.7-3.3 3.7s-1.4-1.3 0-3.3c1.2-1.8.4-2.1-1.9-.9-1.1.6-1.3 1.6-1.3 4.9.1 2.4-.4 4.7-1.4 6.9-2.8 5.2-1.6 12.5 1.4 8.9m38.3-12.3c1.8-1.4 2.9-1.4 1.8 0-.5.6-1.2 1-2 1.1-.9 0-.9-.2.2-1.1m.9 6.1c-1.3.9-2.7 1.8-4.1 2.5-1.8 1.1-3.5 2.5-5 4.1-4.5 4.9-11.5 8.9-11.5 6.6 0-1.1-1.9-.9-2.9.4-.7.8-.7 1.3-.1 2.1s.1 1.6-2.7 4c-1.2 1.1-2.5 2.1-3.9 3-.5 0 1.9-4.3 5.1-9.3 2-3.1 2.7-3.6 3.5-3s1.4.4 2.8-1.5c1-1.3 2.3-2.3 3-2.3.9-.1 1.6-.6 2.1-1.4.4-.9 1.5-1.3 2.4-1 1.1.3 1.4.1 1.1-.4s1-1.8 3.4-3.4c3.1-2 4.4-2.5 6.1-2.1l2.2.4-1.5 1.3zm12.7 25.6c-.7 1.1-3.2.7-3.2-.4s.7-1.4 2.4-.6c.7.2 1 .6.8 1m106.1-3c-1.1 0-2.3.2-3.4.4-1.6.4-1.6.3-.5-.4 1.7-1.1 5.5-1.6 5.5-.7 0 .4-.7.7-1.6.7m-53.1 25.4c-.2.4-.6.7-1.1.7-1 0-.8-.5.4-1 .6-.2.9-.1.7.3m5.6-1.5c-.8 0-1-.2-.4-.4.4-.2 1-.2 1.4.1.2.2-.2.4-1 .3m50.2-2.8c-.2.4-.6.7-.7.7s-.5-.3-.7-.7.1-.7.7-.7 1 .3.7.7m22.5-11.9c-1.8 0-2.5-.1-1.6-.3 1.1-.2 2.2-.2 3.2 0 .9.2.2.3-1.6.3m-9.8 28.6c-.6 0-.9-.3-.7-.7.4-.7 1.8-.4 1.8.4.1.2-.4.3-1.1.3m392.9-16.6c-.5.4-1.2.7-1.9.6-.8 0-1.3-.2-1-.5.7-.7 3.4-.8 2.9-.1m130.2-10.1c.7-.2 1.4-.2 2.2 0 .5.2-.1.4-1.3.3s-1.6-.1-.9-.3m111.1-15.5c.6 0 .9.3.7.7-.2.4-.7.7-1.1.7-.4 0-.7-.3-.7-.7 0-.4.5-.7 1.1-.7m-19 2.1c-1 0-1.4-.2-.9-.4.6-.2 1.2-.2 1.8 0 .5.2.1.4-.9.4m7.2-.7c-.6.4-1.4.7-2.2.7-1 0-1-.1 0-.7.6-.4 1.4-.7 2.2-.7 1 0 1 .1 0 .7m-3.3-7.2c1.2 0 3.9-.2 6.1-.4 3.9-.4 3.9-.3 1.8.7-2.6 1.2-5.5 1.3-8.2.4-1.8-.6-1.8-.6.3-.7m-23.5 4.5c2.3-1.2 6.1-1.6 13.9-1.6 4.1 0 8.5.1 9.7 0h2.2l-2.2.9c-1.2.5-6.4 1.2-11.6 1.4s-9.9.6-10.4.8c-.6.2-1.3 0-1.9-.3-.9-.3-.8-.6.3-1.2M750.4 80c.4-.6 2.5-.3 2.5.4 0 .2-.7.3-1.5.3s-1.2-.3-1-.7m-9.2-28.4c.6 0 1 .3.7.7s-.6.7-.7.7-.5-.3-.7-.7 0-.7.7-.7m.7-22.6c.6 0 1 .3.7.7s-.6.7-.7.7-.5-.3-.7-.7 0-.7.7-.7m-8.2 9.5c.4 0 .6.3.3.7s-.6.7-.8.7-.3-.3-.3-.7c0-.4.4-.7.8-.7m-415.8 63.9c-3.4 1-3.9 1-3.3.1.3-.5-.9-.6-4.1-.3-2 .2-4 .5-6 1-.9.3-1.9.3-2.9 0-1.8-.7-1.1-1 5.4-2.5 5.5-1.3 9-1.4 9.7-.3.3.4 1.3.6 2.2.3 2.9-.7 2 .8-1 1.7m-15.8-44.3c0-.4.7-.7 1.5-.7s1.3.2 1 .5c-.7.8-2.5 1-2.5.2m6.2-1.1c1.1-.5 2.1-1.2 2.9-2.2.5-.9 1.6-1.1 4.7-.9s3.9.4 3.4 1.2c-.3.5-2.3 1.2-4.5 1.3-1.7.1-3.4.4-5 1-.8.4-1.6.6-2.5.6-.8.1-.5-.4 1-1m19.2 45.4c-.8 0-1-.2-.4-.4.4-.2 1-.2 1.4.1.1.2-.3.4-1 .3m1.1-49.7c0-.2.5-.5 1.1-.7s1.1-.1 1.1.3-.5.7-1.1.7-1.1-.1-1.1-.3m2.9 10.5c-.4 0-.7-.3-.7-.7s.3-.7.7-.7c.4 0 .7.3.7.7 0 .4-.4.7-.7.7m2.1 37.1c0-.4.5-.7 1.1-.7 1.1-.2 2.2-.5 3.1-1.1 1.6-.8 11.4-1.9 17.9-2 2.6 0 2.5.5-.4 1-1.6.3-3.3.4-4.9.2-.8-.2-1.6 0-2.1.6s-3.4 1.4-6.6 1.9c-6.9 1-8.1 1-8.1.1m102.2 102.8c-.3-.2-.5 0-.5.5s-.3.6-.8.3c-.5-.2-1.2-.1-1.6.3-.8.7-12.2 2.1-13.6 1.7-1.5.2-2.9.5-4.3 1-2.4.7-3.8.9-4 .4s-1.4-.7-2.9-.7c-2.4.1-2.5.1-.8.6 1.2.4-.2.6-4.6.8-3.5.1-7.3.3-8.2.3s-7.1.4-13.6.6-14.5.6-17.9.8c-24 1.2-28.7 1-18.6-1 9.5-1.8 13.6-2.4 19.3-2.6 2.9-.1 5.8-.4 8.6-1 2.4-.6 4.9-.8 7.4-.8 2.7 0 5.4-.3 6.1-.6s6.3-.9 12.5-1.1c4-.1 7.9-.3 11.9-.8.8-.5 15.5-2.6 18.2-2.6 2.5 0 1.8 1.1-1 1.7-1 .2.8.2 3.9 0 10.2-.6 14.3-1.1 15-1.8.9-.9 1.8-.9 1.8 0 0 .4-.5.7-1.1.7s-1 .4-.9.9c.2 1.1-9.3 3.2-10.3 2.4m-53.4-2.1c.7-.2 1.4-.2 2.1 0 .5.2-.1.4-1.3.3s-1.5-.2-.8-.3m9-135.3c.4-.2 1-.2 1.4.1.2.2-.2.4-.9.4s-1-.3-.5-.5m3 132.9c0-.7 2.8-.8 3.2-.1.2.3-.3.8-1 1-1.3.4-2.1 0-2.2-.9M399 65.4c.6 0 1.1.3 1.1.7 0 .4-.3.7-.7.7-.5-.1-.9-.3-1.1-.7-.2-.3.1-.7.7-.7m2.5.8c0-.4.6-.5 1.4-.3s1.4.5 1.4.7-.6.3-1.4.3-1.4-.3-1.4-.7m4.3 0c.2-.1 2.6-.3 5.3-.4s5.1-.6 5.4-.9c.7-1 3.6-.6 3.6.5 0 .8.2.9.9.2.5-.5 1.2-.8 1.9-.9.8 0 .8.3-.3 1.4s-2.1 1.4-6.7 1.3c-4.8 0-10.9-.8-10.1-1.2m19.8-1.5c.2-.4.6-.7.8-.7s.3.3.3.7c0 .4-.3.7-.8.7-.4 0-.5-.3-.3-.7m14.9.8c-.9 1-12.4 1.5-12.4.6 0-.4.6-.9 1.3-1.1 1-.3 1.9-.7 2.8-1.2.8-.4 1.7-.5 2.5-.1.6.4 1.3.6 2 .7l2.8.2c1.2.1 1.5.4 1 .9m6.3 140.2c-5.7-.1-5.6-.2 2-1.4 1.9-.3 3.6 0 3.6.8 0 .4-2.3.7-5.6.6M494.5 57c-14 1.2-13.6 1.2-8.4.1 4.8-1 13.3-1.6 14-1 .1.2-2.4.6-5.6.9m1.8 132.3c-1.6.2-3.2.5-4.8.9-.8.2-1.2.1-.9-.3.8-1.3 6.6-2.6 8-1.8 1 .6.5.8-2.3 1.2m-3.8-129.4c0 .4-6.3 1.9-10 2.4-4.6.6-25.1.8-24.9.2.1-.4 3-.8 6.3-1s7.1-.5 8.3-.6c5.2-.7 20.3-1.4 20.3-1M476 183.7c-3.1.2-4.3.1-3.6-.4 1.3-.9 10.4-1.4 11.1-.6.3.3-.3.5-1.2.6s-3.7.2-6.3.4m4.1 10.2c-1.1.4-2.3.7-3.5.7l-3.1.3 3.2-1c3.1-.9 4.3-1 3.4 0m-7.7-123.4c0-.4 1.3-.7 3-.7s2.9.1 2.7.3c-.8.6-5.7 1-5.7.4m9.9 123.2c.4-.2 1-.2 1.4.1.2.2-.2.4-.9.4s-1.1-.3-.5-.5m-14.3 2.9c.7.2.1.3-1.3.3s-1.9-.1-1.3-.3c.9-.2 1.7-.2 2.6 0m-2.1-10.2c.4-.2 1-.2 1.4.1.2.2-.2.4-.9.4s-1.1-.3-.5-.5m-1.8 2.6c-.8 0-1-.2-.4-.4.4-.2 1-.2 1.4.1.2.2-.2.3-1 .3m-1.3-4.3c-.2.4-1.5.7-2.7.6-2.2-.1-2.2-.1-.5-.6 2.5-.9 3.7-.9 3.2 0m-2 12c2-.2 2.9-.1 2.6.4-.6.5-1.3.8-2.1.7-.8 0-1.6.2-2.3.7-.8.7-9.6 1.4-10 .7-.1-.4 6.7-1.9 11.8-2.5m43.7-.4c-2.7.2-5.4.6-8 1.2-2.4.6-4.6.8-5 .6s-.5-.1-.3.3c.5.9-2.5 2.4-4.9 2.4-.8-.1-1.6.2-2.2.8-.3.5-2.6.7-6.7.4-3.6-.2-4.8-.1-3 .1l3.2.5-2.9.5c-1.6.3-4.3.8-6.1 1.2-5.1 1.2-15.5 1-16-.2-.3-.8.2-1 2.4-.7 1.9.2 3 0 3.4-.6.6-1.1 7-2.8 11.1-2.9 1.5-.1 2.7-.3 2.7-.6 0-.5 4.3-1.7 10.3-2.9 4.7-1 26.4-1.6 25.9-.8 0 .2-1.8.6-3.9.7m6.9-141.1c-2.8.6-10.9.9-10.3.4 2.2-.4 4.5-.6 6.7-.7 4.4-.1 5.6-.1 3.6.3m3 128.3c2.5-.2 3.2-.1 2.3.4-1.4.6-2.8 1-4.3 1.2-2.5.4-3 .3-2.3-.4.5-.5 2.4-1 4.3-1.2m-8.5 2.1c.4-.2 1-.2 1.4.1.2.2-.2.4-.9.4s-1-.2-.5-.5m-1-126.8c-.8 0-1-.2-.4-.4.4-.2 1-.2 1.4.1.2.1-.2.3-1 .3m28.4 131.6c-.6.3-4.9.8-9.7 1.1-20.5 1.1-20.1 1.1-17.5.4 3.1-.6 6.2-.9 9.3-1 3.7-.2 7.4-.5 8.2-.7 3.1-.5 6.2-.7 9.3-.6 1.2.2 1.2.4.4.8m18.1-4.2l-7.7 1.1c-1.5.2-5.6.6-8.9.7s-8 .5-10.4.6c-9.1.7-19.6.9-19.3.4.5-.8 8-2.1 12.8-2.1 1.7.1 3.4-.1 5-.6 1.5-.4 3.2-.7 4.8-.6 2.2-.1 9.7-.4 16.8-.7 13-.5 15.8-.1 6.9 1.2m-26.7-1.9c-1.6.6-3.3.9-5 1h-2.5l2.9-1c1.6-.6 3.3-.9 5-1h2.2l-2.6 1zm18-138.2c-.5-.2-.7-.7-.5-1 .5-.9 5.3-.9 5.3 0 .1.6.2 1.2.4 1.8.2.6.1 1.2-.4 1.2s-.6-.3-.4-.7c.6-1-.1-.9-2.8.3-1.5.6-3.1 1.1-4.7 1.3l-2.4.3 1.7-1.3c.9-.7 2-1.2 3.1-1.4 1-.1 1.2-.3.7-.5m3 8.4c-2.8 1.1-5.3 1.5-5.7.9s2-1.5 5-1.5c1.9 0 2 .1.7.6m9.7 126.5c-1 0-1.4-.2-.9-.4.6-.2 1.2-.2 1.8 0 .5.2.1.4-.9.4m4-131.5c-.8 0-1.6.2-2.4.4-1.2.4-1.2.3.1-.7 1.6-1.3 2.3-1.4 2.9-.4.3.3 0 .7-.6.7m6.6 131c-1.2.8-3.4.8-3.4 0 0-.3 1-.6 2.2-.6 1.3 0 1.8.2 1.2.6m43 4.2c-1.6 0-3.2.1-4.8.4-1.3.4-1.5.2-1.2-.8s.1-1.1-1.4-.7-1.8.3-1.4-.8.2-1.2-.7-.8c-.7.3-1.2.1-1.2-.2 0-1.1 2.7-.8 4.6.4 1.1.7 2.4 1 3.7 1 2.5-.1 4.3.3 5 1 .3.3-.9.5-2.6.5m7.3-128.9c.4-1.2 3.7-2 4.9-1.3.7.4.3.7-1.2 1.1-1.2.3-2.5.6-3.1.8s-.8-.1-.6-.6m5.6 126c-1.4.9-2.3.9-1.8 0 .4-.5 1-.7 1.7-.7.9 0 1 .1.1.7m-.5-8.9c1.9-.8 4.6-.7 5.2.2.7 1.1.4 1.1-3.3.7-2.3-.3-2.9-.5-1.9-.9m5.4-4.2c.8 0 1.5.3 1.5.7s-.5.7-1 .7c-.6 0-1.1-.3-1.5-.7-.2-.4.3-.7 1-.7m27.8 12.4c-5 .9-28.6 1.4-30.2.7s-1.5-.7 5.4-1.2c3.8-.3 21.4-.5 25-.3l3.2.2-3.4.6zm-22.6-5.9c-.9.1-1.8-.2-2.6-.7-.3-.4.5-.7 1.7-.7.9-.1 1.8.2 2.6.7.2.4-.5.7-1.7.7m.1-4.4c-2.6-.1-2.9-.2-1.1-.4 1.3-.2 2.3-.6 2.3-1s.5-.7 1.1-.7c.6 0 1.1.5 1.1 1.1 0 .8-.8 1-3.4 1m-1-1.4c-.6 0-1.2-.2-1.7-.7-.6-.9.4-.9 1.8 0 .9.6.9.7-.1.7M629.5 56c-.2 0-.5-.3-.8-.7s-.1-.7.3-.7.7.3.8.7c.1.4-.1.7-.3.7m13.6-4c4-.1 5.3.1 5.3.9 0 .5-.6 1-1.4 1s-1.4.4-1.4.9-1.3.9-3.9.9c-3.3 0-4-.2-4.3-1.4-.2-.6-.2-1.2 0-1.8 1.9-.4 3.8-.5 5.7-.5m-1.2-3.7c.4-.2 1-.2 1.4.1.2.2-.2.4-.9.4s-1.1-.3-.5-.5m27.7 2.7c-2.2 1.4-5.2 1.3-6.5-.2-.7-.8-1.7-1.2-2.2-1-1.4.1-2.9 0-4.3-.5l-3.3-.8 2.4-.8c1.3-.5 2.7-.6 3.1-.3.6.4 1.2.6 1.9.6.9.1 1.6.6 2 1.4.6 1.2 1.3 1.4 4.5 1s3.6-.3 2.4.6m1.8 2.8c-2.6.8-5.7.8-5.7 0 0-.4 1.7-.7 3.8-.7 2.9.1 3.3.2 1.9.7m-16.8-2.9c1.7 0 3.3.3 3.5.7.5.5 1.3.8 2 .8 1 .1 2 .4 2.8 1 1.1.8 1.1 1 .2 1.4-.6.2-.9.9-.7 1.5.3.9-.5 1.1-5.7 1.1-3.4 0-6.2-.3-6.2-.7s-1-.7-2.3-.7c-2.1 0-2.2-.1-1-.9 1-.7 2-1.6 2.8-2.5 1.2-1.3 2.3-1.7 4.6-1.7M646 174.6c1 .4 0 .6-3.2.6-2.5 0-4.5-.1-4.3-.2.8-.7 6.2-1 7.5-.4m-7.7-5.6c.6-.2 1.2-.2 1.8 0 .5.2.1.4-.9.4s-1.4-.2-.9-.4m6.6 1.1c-1 0-1.4-.2-.9-.4.6-.2 1.2-.2 1.8 0 .5.2.1.4-.9.4m-2.5-2.1c-1 0-1.8-.1-1.8-.3s.8-.4 1.8-.6 1.8-.1 1.8.3-.8.6-1.8.6m9.4 3.1c-1.3-1.3-.2-1.8 2.6-1.4 1.7.2 4.9.5 7.2.6s4.3.4 4.5.7c.4.7-13.6.9-14.3.1m16 4c-1.4 0-1.9-.1-1.3-.3.8-.2 1.7-.2 2.5 0s.2.3-1.2.3m10.4-8.6c-.4.4-4.5 1-9.3 1.4s-9.5.7-10.7.6-4.6-.3-7.7-.4c-5.3-.2-7.1-1.1-4.3-1.9 3.6-.3 7.2-.4 10.7-.2 5.2.1 9.5 0 9.5-.2s3.2-.3 10.7-.1c1.1.1 1.5.4 1.1.8m1.1-20.8c-.6-.1-1.1.1-1.5.6-.2.4-1 .3-1.7-.3-2-1.5-.8-2.5 2.3-2 2.5.4 3.3 2 .9 1.7m7.6-87.5c-.6 0-1.1-.3-1.1-.7 0-.4.3-.7.7-.7.5.1.9.3 1.1.7.2.4-.1.7-.7.7m1 5.1c1.4-.9 2.2-.9 2.2 0 0 .4-.7.7-1.6.7-1.4 0-1.5-.1-.6-.7m-3-8.5c.6-.2 1.2-.2 1.8 0 .5.2.1.4-.9.4s-1.4-.2-.9-.4m0-13c-1.3.4-3.5-.3-3.5-1.1s5.5-.9 6.1 0c.2.4 0 .7-.6.7-.6.1-1.3.2-2 .4M682.1 54c1.3.9 1.3 1.2.4 1.5-.7.3-1.1 0-1.1-.6 0-.5-.3-1-.8-1.1-.5 0-.6-.2-.4-.4s1.1 0 1.9.6m3.2 25.4c4.3 0 8.5.3 9.3.6 1.8.8-13.8.7-15.8-.1-.7-.3 2.2-.5 6.5-.5m7.4-20.3c.4-.2 1-.2 1.4.1.2.2-.2.4-.9.4s-1.1-.3-.5-.5m7.3-1c.4 0 .7.3.7.7 0 .4-.3.7-.7.7s-.7-.3-.7-.7c0-.3.3-.7.7-.7m-.4-1.4c.2-.4.6-.7.8-.7s.3.3.3.7c0 .4-.3.7-.8.7-.4 0-.5-.3-.3-.7m5.8 89.1l4.2.6-4.3.5c-9.4 1.1-15.1 1.4-16 .8-.5-.4-.7-.8-.3-1.1 1.4-.8 12.3-1.4 16.4-.8m-.8-88.5c-.2-.4 1-.7 3-.7s3.3.1 3.1.3c-.8.7-5.7 1-6.1.4m6.9 10.6c2.5.2 5.5.3 6.6.4s2 .4 2 .8-.2.7-.5.6-3-.3-6.1-.6c-6.9-.7-8.4-1.7-2-1.2m-13.6 83.3c-1.4.9-7.2.9-7.2 0 0-.4 1.8-.7 4.1-.7 3 0 3.8.2 3.1.7m-12.6-6c-1.6 0-2.1-.2-1.2-.3.9-.2 1.9-.2 2.9 0 .6.2-.1.3-1.7.3m24.4 24.9c-4.4.6-20.9.7-28.6 0-3.5-.3 1.7-.5 13.2-.5 10.6 0 17.4.2 15.4.5m5.7-.1c-1.2 0-1.6-.2-.9-.4.7-.2 1.4-.2 2.2 0 .4.2-.1.4-1.3.4m50.4-6.5c1.6 0 2.9.3 2.9.7s-1.3.7-2.9.7-2.9-.3-2.9-.7 1.4-.7 2.9-.7m-9-24.7c.6 0 1.1-.3 1.1-.7s.6-.7 1.3-.7c1 0 1 .1.3.6s-.8.7 0 1.2c.5.3 1 .3 1.2-.2.3-.9 3-.4 3 .6s-7 .8-7.5-.1c-.3-.4 0-.7.6-.7m2.4 9.4c.5 0 .8.3.9.8 0 .4-.6.7-1.4.7-.7 0-1.4-.2-1.8-.7-.7-1.2.3-2.2 2.4-2.1 1.7 0 1.8.1.5.7-.9.3-1.1.6-.6.6m0 15.6c.6-.2 1.2-.2 1.8 0 .5.2.1.4-.9.4s-1.4-.2-.9-.4m-3.9-21.6c1.9.4 2 .5.8 1-1.9.8-4.1.8-5.2 0-1.4-.8 1.6-1.5 4.4-1m-1 6.9c0 .4-1.5.7-3.3.7s-3.2-.1-3-.3c.7-.7 6.4-1 6.3-.4m1.9 25.9c1.6.1 4.7.3 7 .3s4.1.3 4.1.7c0 .7-13.4 1.4-14 .8-1.9-.4-3.9-.7-5.8-.7-7.3-.5-7-1.9.4-1.6 2.9.1 6.8.4 8.3.5m-10.7-9.9c.8.3-2.6.6-8 .7-5.6.1-9.6-.2-9.9-.6-.5-.9 15.7-1 17.9-.1m-18-26.2c.6-.1 1.1.4 1.2 1 .1.6-.4 1.1-1 1.2-.6.1-1.1-.4-1.2-1v-.1c0-.5.4-1 1-1.1-.1.1 0 0 0 0m-4.7 25.7c.4-.2 1-.2 1.4.1.2.2-.2.4-.9.4s-1-.2-.5-.5m-1.1 6.6c1.2-.2 2.4-.2 3.6 0 .9.2 0 .3-2 .3s-2.7-.2-1.6-.3m-2.7-21.3c-.5.8-3.7.8-5.7 0-1.2-.5-1-.6 1.2-1.1 2.7-.5 5.1.1 4.5 1.1m9.5-25.5c.9 0 1.6.3 1.6.7 0 .9-.8.9-2.2 0-.8-.5-.7-.7.6-.7m3.4 5.2c.2.4-1.2.6-3.2.6-1.5 0-3 .1-4.5.3-1.3.4-12-1.8-12-2.4 0-.3 1.4-.5 3-.3 12.9.8 16.4 1.2 16.7 1.8m3.1-46c-.6 0-1.1-.1-1.6-.4-1-.4-2-.7-3.1-.8-1-.1-2-.3-3-.6-1.5-1.5 5.5-.8 7.6.8 1.1.8 1.1 1 .1 1m.4-15.2c-3.7.8-11.7.7-10.3 0s5.6-1 10-.8l3.2.2-2.9.6zm3.3 15.2c.9.1 1.8.4 2.5 1 1.1.8 1.2 1.1.3 1.1-.9-.1-1.8-.4-2.5-1-1.2-.8-1.2-1-.3-1.1m-32.3-33c5.9-.1 14.3 1.2 17.1 2.6 3.5 1.8 4.6 3.4 2.2 3.4-.8 0-1.5.3-1.5.7s-.5.7-1.1.7-1.1.3-1.1.7c0 .9 4.5 1.4 6.2.7.9-.4.6-.5-1.2-.6-2-.1-2.3-.2-1.3-.8 1.7-1 5-.1 4.6 1.2-.2.7.1 1 1.1 1s1.3-.3.9-.8-.2-.6.5-.2c1.3.7 2.7 1.3 4.2 1.8 1.7.6 3.3 1.6 3.5 2.1.2.7-.1.8-1.4.4-.9-.3-5.7-.5-10.6-.4s-9.8.3-10.7.3c-1.6.1-3.2.1-4.8 0-3.8-.3-4.6-1.9-1-2.1 2.5-.2 9.2-2.3 7.5-2.3-.5 0-1-.8-1.3-1.8-.4-1.8-1.8-2.6-1.8-1 0 .4-.4.6-.9.3s-.3.1.5.7c1.4 1.2 1.4 1.2-.7 1-1.5-.2-2.1-.6-2-1.5s-.7-1.3-4.8-1.7c-3.8-.4-5-.8-5.2-1.7s-.5-.9-1.8.5c-1.8 1.8-5.1 2.2-6.5.7-.7-.7-1.2-.7-2.2-.1-2.3 1.4-7-.3-5.4-2 .7-.5 12.8-1.6 19-1.8M690 40.7c0-.4.3-.7.7-.7.4 0 .7.3.7.7 0 .4-.3.7-.7.7-.4.1-.7-.3-.7-.7m-5-21.8c1 .3 1.3.6.8.6s-.8.5-.6 1.2c.6 1.5-.5 1.4-2-.3s-.7-2.2 1.8-1.5m9 6.9c2.4 2 2.8 1.9-6.7 1-5.1-.5-6.2-.8-7.9-2.5l-2-2 4.3.4c7.8.8 10.2 1.3 12.3 3.1m-15.5-7.7c.9.6.8.7-.5.7-.9 0-1.6-.3-1.6-.7-.1-.9.7-.9 2.1 0m-3.2-.7c-.2 0-.5-.3-.7-.7s.1-.7.7-.7 1 .3.7.7-.6.7-.7.7m-27.7 24.3c.4-.2 1-.2 1.4.1.2.2-.2.4-.9.4s-1.1-.3-.5-.5M646 44c2.7-.2 6.5-.7 8.4-1.1 2.8-.5 4-.4 5.9.5s3.5 1.1 6.4.7c4.3-.5 10.4.8 8.7 1.8-.6.4-.1.6 1.4.6 1.3 0 2.3.3 2.3.7s-1.5.7-3.4.7c-2 0-3-.3-2.5-.6s-.7-.5-2.8-.4-4-.1-4.3-.6-1-.5-2.3.4c-1.5 1-2 1-2.8.2-1.1-.7-2.3-1-3.6-.9-1.5 0-2.7-.2-2.7-.4 0-.6-1.8-.3-4.3.8-1 .4-1.4.8-.8.8s.7.4.5.8c-.5.9-2.5.9-3.8.1-.8-.5-.8-.7 0-1 .5-.2-.4-.6-2.1-.8-1.2-.3-2.5-.3-3.8-.1-.4.2-.7.1-.7-.3.1-1.2 1.1-1.5 6.3-1.9m-7.8.7c.3.3 0 .8-.6 1.2-1.4.9-3.6.9-3.6 0s3.6-1.9 4.2-1.2m-2.3 9.8c.3.5-.7.7-2.5.7-1.6 0-2.8-.3-2.6-.6.5-.8 4.6-.9 5.1-.1m-20.2-22.3c.7-.2 1.4-.2 2.2 0 .5.2-.1.3-1.3.3s-1.6-.1-.9-.3m-1.1 5.4c.2-.3 2.9-.5 6-.5 4.4 0 5.7.2 5.7 1s.7.9 2.8.6c1.6-.2 3 0 3.2.4s-1.1 1-3.9 1.3c-2.7.3-4.5.9-4.8 1.5-.4 1.1-3.8 1.4-3.8.3 0-.4-1-.7-2.2-.7-1.6 0-2.3-.4-2.8-1.6-.3-.8-.4-1.6-.2-2.3m.6 6.6c-.5.8-3.2 1.2-13.5 2-3 .3-5.4.7-5.2 1.1.2.4 0 .9-.3 1.1-.4.3-.7 0-.7-.6 0-.9-.4-1-2-.5-1.4.4-2.8.7-4.3 1-2 .4-2.3.2-2.3-1.2 0-1.2.6-1.8 2.5-2.4 1.4-.5 2.7-.5 3.1-.2s1.4.3 2.5-.1 2-.5 2.3-.3 1.2 0 2.2-.5c1.4-.7 3-.8 4.5-.3 2.4.4 4.9.5 7.3.4 2.8-.2 4.2-.1 3.9.5m-12.9-2.8c-.4-.7 2.9-1.5 6.1-1.5 2.8 0 2.6 1.2-.2 1.7-3.1.7-5.5.6-5.9-.2m-14.2-8.8c.7 0 3.7-.2 6.6-.4 3.3-.2 4.8-.1 3.9.3-2.2.9-11.8 1.6-11.8.8 0-.4.6-.7 1.3-.7m-17 10.1c4.4-.7 6.1-1.7 4.5-2.7-.7-.4.2-.8 2.5-1.4 4.5-1 10.7-1.6 11.2-1.1.2.2 5.6.4 12.1.4 8.2 0 10.8.2 8.8.6-2.1.4-4.1.6-6.2.7-1.8 0-3.6.4-3.8.8s0 .7.5.7.7.2.2.7-3.6.9-7.1 1c-8.4.4-16 1.2-16.4 1.9-.2.3 1.4.5 3.6.5 4.2-.1 6.1.9 4.4 2.3-.5.5-4.3 1-8.4 1.2s-9.2.6-11.2.8c-2.4.3-3.8.2-3.8-.3 0-1.2 1-1.6 7.3-2.4 3.3-.4 6.3-1.1 6.6-1.4.8-.8-2.8-.4-15.9 1.4-4.8.7-9 1-9.1.7s.1-.7.6-.9 0-.4-1.1-.4c-2-.1-2.6-1-1.1-2 2-.5 4-.7 6-.7 2.5-.1 4.9-.3 7.4-.7 1.1-.3 2.3-.2 3.3.2.5.5 2.6.5 5.1.1m-5-15.4c0 .6-.6 1-1.4 1s-1.4-.3-1.4-.6.6-.8 1.4-1 1.4 0 1.4.6m-5-4.1c1.4-.9 3.6-.9 3.6 0 0 .4-1 .7-2.3.7-1.8.1-2.1-.1-1.3-.7m-3.2 3c1.4 0 2.5.3 2.5.7s-1 .7-2.1.7c-.9.1-1.8-.2-2.5-.7-.3-.4.6-.7 2.1-.7M557 39c3.5-.7 9.2-.5 9.2.3 0 .4-.7.8-1.6.8s-3.5.2-5.7.4c-4.4.3-5.7-.7-1.9-1.5m-31.3-12.8c.5-.5 1.3-.8 2-.7 1.3 0 1.4.1.5.7-1.4.9-3.1.9-2.5 0m-77.1 8.2c.4-.2 1-.2 1.4.1.2.2-.2.4-.9.4s-1-.3-.5-.5M399 45.1c.4-.5.9-.7 1.5-.7s.9.3.6.7c-.4.5-.9.7-1.5.7-.5 0-.8-.3-.6-.7m-4.6 0c.8 0 1.5.1 1.5.3 0 .7-2.1 1-2.5.4-.3-.4.1-.7 1-.7m-8.9 4.4c10-1.6 20.7-2.8 30.4-3.5 2.4-.1 4.8-.4 7.2-1 3-1.6 10-2.8 12.2-2.2 1.7.5 2.6.4 3.4-.2s1-.7.5 0 .3.9 2.5.9c2.5 0 2.9-.2 2.2-1-1-1.2.2-1.5 15.3-2.9 9.1-.9 10.8-.9 11.3 0 .7 1.3 2 1.3 1.8.1-.1-.6 1.9-1.2 6.3-1.8 8.2-1.1 16.3-1.2 15.7-.3-.2.4-2 .7-3.9.7s-3.7.3-3.9.7c-.6.9 6.8.7 8-.2.6-.5.9-.3.9.9 0 1.4.4 1.5 5.4 1.5 3 0 5.3.2 5.3.5-.2 1.5.2 2.4 1.2 2.4.7 0 1-.4.7-1.1s-.2-1.1.1-1.2 3.8-.2 7.8-.4c6-.3 7.3-.1 7.7.8.5 1.4 4.3 1.5 5.6.1 1.6-1.6 7.9-2.6 15.4-2.6 7.4 0 11.4.9 8 1.6-1 .2-3.7.6-6.1.8-2.9.3-4.6.8-5.2 1.6-.5.7-.9 1-.9.7s-.5-.2-1 .3c-.8.7-1.1.6-1.4-.1-.2-.5-.4-.2-.4.7-.1 2.2-3.1 3.7-8.4 4.2-11.3 1-26.8 2.6-36.4 3.7-4.9.6-9.8.9-14.7.9-2.3-.2-4.6 0-6.8.7-1.9.7-6.3 1-13.6 1-5.9 0-12.5.3-14.7.6-2.9.3-5.7.4-8.6.2-2.6-.2-4.8-.1-5.1.2s-2.1.7-4.1.7-3.8.5-4 .9-1.5.9-3 1c-1.9.2-3.8.4-5.7.8-3.4.6-6.9.9-10.4 1.1-4.1.2-9.1.6-11 .8s-11.8.3-21.8.2l-22.5-.1c-2.9 0-5.9.2-8.8.6-4.1.5-4.8.3-4.6-1.3 0-.3-.9-.5-2.1-.5s-2.1-.3-2.1-.6c0-1.1 18.1-5.6 27.2-6.7 7.7-1 15.4-2.1 29.1-4.2m-49.8 4.4c1.4-.6 2.8-.9 4.3-1.1 2.3-.3 2.9-.3 2.1.3-1.4.6-2.8 1-4.3 1.2-2.1.2-2.8.1-2.1-.4m9-2.3c.5-.5 1.3-.8 2-.7 1.3 0 1.4.1.5.7-1.5 1-3.1 1-2.5 0m-15.8-5.8c.4-.5.9-.7 1.5-.7s.9.3.6.7c-.4.5-.9.7-1.5.7s-.8-.3-.6-.7M308 51.4c6-.3 14.5-.9 18.8-1.5 11.6-1.6 18.6-2 20.5-1.2.9.4 1.5.7 1.3.8s-4.2.2-9 .4-10.5.7-12.9 1-6.6.9-9.5 1.2c-4.1.4-5.8.9-8 2.6-3.5 2.5-3.6 2.5-3.6.3 0-1.7-.2-1.8-4.3-1.8-2.4 0-4.3-.3-4.3-.6s5-1 11-1.2m-15.6 53.7c3.4-1.2 6.7-1.5 5.7-.4-.4.4-2.5.9-4.6 1.1l-3.9.4 2.8-1.1zm-5.5 2c.4-.2 1-.2 1.4.1.2.2-.2.4-.9.4s-1-.2-.5-.5m-4.3.8c.6-.2 1.2-.2 1.8 0 .5.2.1.4-.9.4s-1.4-.2-.9-.4m-8.6 98.9c.6-.2 1.2-.2 1.8 0 .5.2.1.4-.9.4s-1.4-.2-.9-.4m-4.5 10.7c-.5.8-2.5.8-3.8 0-.8-.5-.8-.7.1-1 1.5-.5 4.2.3 3.7 1m2.9-9.5c-.6-.1-1.3-.3-1.8-.7-.6-.4-.8-.7-.4-.7.6.1 1.3.3 1.8.7.6.4.8.7.4.7m-3.9-4.4c1-.6 5.6-1.1 5-.5-1 .4-2.1.6-3.2.7-2 .4-2.5.3-1.8-.2M49.1 137.5c.3-.4.7-.7 1.2-.7.4 0 .5.3.3.7-.3.4-.7.7-1.2.7-.4 0-.5-.3-.3-.7m0 10.9c-.5.5-1.2.8-1.9.7-.8 0-1.2-.3-1-.7.5-.5 1.2-.8 1.9-.7.8-.1 1.2.3 1 .7m9.6 21.6c-2.5.3-3-.5-1.4-2.6.8-1 1.2-2.1 1-2.4s.3-.8 1-1c.9-.4 1.6-1.3 1.8-2.2.2-1 .9-1.8 1.4-1.8 1.4 0 .9 4.5-.8 7.5-.5 1.2-1.6 2.2-3 2.5m4.9-1.3c-.2.6-.7 1-1.3 1.3-.5.2-.8-.1-.6-.6.2-.6.7-1 1.2-1.2.6-.2.9 0 .7.5m7.9-12.6c1.8-1.1 2.3-1.1 2.3-.3 0 .6-.9 1.5-2 2l-2.6 1.3c-1.7.8.3-1.8 2.3-3m6.2 26.9c-.3 1.6-1.2 2.6-3.4 3.8-4.6 2.5-5.9 1.9-5.4-2.5.2-1.8.8-2.3 4-3.4 4.3-1.7 5.4-1.2 4.8 2.1m4.3-4.1c-.2.4-.6.7-.8.7s-.3-.3-.3-.7c0-.4.3-.7.7-.7.5 0 .6.3.4.7m23.6-7.9c-4.5 1.7-11.5 2.6-10.8 1.4.3-.5.7-.7.9-.5s1.2-.1 2.3-.6c3.9-2.1 15.8-5.3 15.8-4.2.1.6-2.3 1.7-8.2 3.9m41.9-51.4c-.4.5-.9.9-1.4 1.1-.6-.2-1.1-.6-1.4-1.1-.8-.9-.6-1.1 1.4-1.1s2.2.2 1.4 1.1m-1.3-45.9c.7-.8 4.9-1.7 4.9-1.1 0 .3-.7.8-1.6 1-2 .6-3.8.6-3.3.1m8.2 71.7c-.5-.4-1.1-.6-1.2-.5-.6.6-8.5 1.6-8.5 1.1 0-.9 1.9-1.4 7.9-1.9 3.9-.3 5.7-.2 5.7.3-.1 1.3-2.8 2-3.9 1m3.3-2.9c-1.5 0-1.7-.2-.9-.7 1.4-.9 2.9-.9 2.9 0 0 .3-.9.7-2 .7m10.1 8.6c-1 .6-2.1 1-3.2 1.2-3 .5-1.5-.6 1.8-1.4 1.5-.4 2-.3 1.4.2m-4.7-16.4c.4-.2 1-.2 1.4.1.2.2-.2.4-.9.4s-1.1-.3-.5-.5m6.2-3.9c.4-.5.9-.7 1.5-.7s.9.3.6.7c-.4.5-.9.7-1.5.7-.6.1-.8-.3-.6-.7m14.3 22.3c-2.8.3-5.2.8-5.4 1.1-.6.9-8.6 1.7-8.6.9s7.1-3.1 9.3-3.1c.7 0 1.3-.2 1.8-.7.2-.4 1.1-.4 2-.1 1.3.3 2.7.3 4-.1 1.3-.4 2.6-.5 2.8-.3 1.1 1.1-1.1 1.9-5.9 2.3m9.8-2c-1 0-1.4-.2-.9-.4.6-.2 1.2-.2 1.8 0 .4.3 0 .4-.9.4m2.8-7.8c0-.4.9-.7 2-.7 1.5 0 1.7.2.9.7-1.4.9-2.8.9-2.9 0m2.8 13.1c-.4 0-.6-.3-.3-.7s.6-.7.8-.7.3.3.3.7c-.1.4-.4.7-.8.7m1.8 5c-.8 0-1-.2-.4-.4.4-.2 1-.2 1.4.1.2.1-.3.3-1 .3m4-41.4c-1.4.9-2.4.9-1.8 0 .4-.5 1-.7 1.6-.7 1-.1 1.1.1.2.7m-25.2 82.1c-.6-.4 0-.6 1.7-.6.9-.1 1.8 0 2.7.3 0 .5-3.6.8-4.4.3m4.4-1.4c-.4 0-.7-.3-.7-.7 0-.4.3-.7.7-.7.4 0 .7.3.7.7 0 .4-.3.7-.7.7m30.4 1.4c-.8.8-12.7 1.8-13.3 1.1-1-.4-2-.6-3.1-.5-1.4 0-2.4-.2-2.2-.4s4.6-.5 9.8-.6 9.1.1 8.8.4m-7.5-2.1c-6.9.4-13.2.9-14 1.1-1.1.1-2.3-.1-3.2-.7-.9-.6-2-.8-3-.7-.7.2-1.3.1-1.3-.3s4.3-1.2 9.5-1.9 9.7-1.5 10-1.6c1.6-1 .1-1.7-3.8-1.7-2.7 0-4.2-.3-3.9-.7.6-.5 1.4-.8 2.2-.7 1 0 1.8-.3 1.8-.7s-1.5-.8-3.4-.8c-3.2-.1-3.3-.1-1.4-.8 2.2-.8 9.5-.2 10.2.9.6.5 1.4.7 2.2.7 1 0 1.8.2 1.8.5s2.7.6 5.9.6c8 0 12.2.6 12.5 1.6.2.5-.2.9-.9.9s-1.1.3-1.1.6c-.1 1.4-8.3 3-20.1 3.7m4.3-14.5c0-.4.5-.5 1.1-.3s1.1.6 1.1.7-.5.3-1.1.3-1.1-.3-1.1-.7m3.6 3.6c.5-.4 1.1-.6 1.8-.7.4 0 .2.3-.4.7-.5.4-1.1.6-1.8.7-.3 0-.2-.3.4-.7m9.7 1.5c-.8 0-1.2-.2-1-.4.6-.6 4.2.5 3.7 1.2-.7.5-1.5.7-2.3.6-1.7 0-1.8-.1-.5-.7s1.4-.7.1-.7m-1.8-71.5c-1 0-1.4-.2-.9-.4.6-.2 1.2-.2 1.8 0 .4.3 0 .4-.9.4m41.2 86.1c-1.3.3-1.8.2-1.3-.3.6-.4 1.3-.6 2-.4 1 .2.8.4-.7.7m.1-146.8c.4-.2 1-.2 1.4.1.2.2-.2.4-.9.4s-1.1-.3-.5-.5m-1.3 87.4c1-1.2 2.9-1.5 2.9-.4 0 .4-.5.9-1.1 1.1-2.1.7-2.7.5-1.8-.7m-.3 49c.5-.8 3.2-.8 3.2 0s-2.6 1.6-3.2 1c-.2-.3-.2-.7 0-1m-2 3.6c-1 1.2-2.7 1.2-2.7-.1 0-.6.7-1 1.7-.9 1.3 0 1.6.3 1 1m-4.8-143.1c.9-.5 1.9-.7 2.9-.7 1.4 0 1.6.2.7.7-.9.5-1.9.7-2.9.7-1.4 0-1.6-.2-.7-.7m-.2 137.7c.7.2.1.3-1.3.3s-1.9-.1-1.3-.3c.9-.2 1.8-.2 2.6 0m-5.2-6.8c2-.9 3.4-.9 2.9 0-.7.5-1.5.8-2.4.7-1.7 0-1.8-.1-.5-.7m-3.9 5.7c-1 0-1.4-.2-.9-.4.6-.2 1.2-.2 1.8 0 .4.3 0 .4-.9.4M245 56c1.8 0 2.1.2 1.3.7-1.4.9-3.6.9-3.6 0 0-.4 1-.7 2.3-.7m-3 130.2c.8 0 1.3.3 1.1.7-.2.6-.9.9-1.5.6-.3-.1-.5-.3-.6-.6-.3-.4.2-.7 1-.7m10.2 12.5c1.4.7 2.6 1.6 3.6 2.8.6 1 1.7 1.4 3.7 1.4s2.6.2 2 .9c-1.2 1.2-12.7 1.8-12 .6.4-.6.2-.8-.8-.5-2.1.7-13.3 1-15.9.6-1.3-.1-2.4-.8-3-1.9-.5-1.3-.6-1.3-.6.3s-.2 1.7-3.4 1.3c-1.9-.3-3.8-.4-5.7-.5-1.3 0-2.4-.3-2.4-.7s2.1-.8 4.8-.8 4.3-.2 3.6-.4c-3.2-.8-.6-1.4 6.3-1.4 4.1 0 7.5.3 7.5.6 0 .6-1.6.9-3.4.7-.4-.1-.8.1-.9.5v.1c0 .4 1.8.7 4.5.7 3.8 0 4.2-.2 2.9-.8-1.6-.8-2.2-2-1-2 .3 0 .6-.5.6-1.1-.1-.6-.6-1.1-1.3-1.1-.7 0-1.3-.3-1.7-.8-.9-1.4 9.5-.1 12.6 1.5m-15.8-12.3c.7-.2 1.4-.2 2.1 0 .5.2-.1.4-1.3.3s-1.5-.1-.8-.3m2 11c0 .6-.7 1.2-1.6 1.4-2.3.6-4.3.5-5.5-.2s-.6-1.1 4.1-1.8c2.3-.3 3-.2 3 .6m-3.6-2.5c0 .4-.8.7-1.8.7s-1.8-.3-1.8-.7.8-.7 1.8-.7 1.8.3 1.8.7m-22.3-78.3c.4-.8 1.5-1.1 2.3-.8.9.2 1.9.2 2.8-.2 1.6-.9 17.2-1.7 15.8-.9-.6.4-3.6.9-6.8 1.1-12.4 1-14 1.3-13.2 2.3.6.7.2 1.1-1.5 1.7-.8.3-1.5.5-2.4.7-.4-.2-.9-.3-1.4-.4-1.8-.5-.2-2.4 2.1-2.4.9.1 1.8-.3 2.3-1.1m-17.6-50.5c.6-.8 1.4-1.4 2.4-1.6 1.2-.3 3.6-1.1 5.4-1.7 2.2-.7 4.5-1 6.8-.9 4.1.3 3.5.6-5.1 2.8-10.2 2.5-9.9 2.5-9.5 1.4m-1.6 63.3c.8 0 1.5.1 1.5.3 0 .7-2.1 1-2.5.4-.3-.3.2-.7 1-.7m-3.2-71.2c.2-.4.7-.7 1.1-.7.4 0 .7.3.7.7 0 .4-.5.7-1.1.7s-1-.3-.7-.7m-1.1 72c1.4-.9 2.1-.9 2.1 0 0 .4-.7.7-1.6.7-1.2 0-1.3-.2-.5-.7m-5.8-6.4c.4-.2 1-.2 1.4.1.2.2-.2.4-.9.4s-1.1-.2-.5-.5m-4.5 7.1c.9-.9 4.7-1.2 5.9-.5.6.4.9.1.9-.7 0-1 .2-1.1 1.1-.3s1 1-.2 1.5c-2 .9-8.5.8-7.7 0m-1.9 12.4c1-.7 4.2-1.1 3.5-.5-.8.3-1.6.6-2.4.8-1.5.3-1.8.2-1.1-.3m-.7-18.7c0 .2-.6.4-1.4.7s-1.4.1-1.4-.3.6-.7 1.4-.7 1.4.2 1.4.3m-17.5-56.3c2.4-.9 5.6-2.2 7.2-2.9 3.4-1.5 8.4-2.4 7.9-1.4-1 .7-2.1 1.3-3.2 1.5-1.6.5-2.8 1.1-2.8 1.5s-.5.6-1.1.6c-1.4.3-2.8.7-4.1 1.4-1.7.8-4.2 1.9-5.7 2.5-1.2.6-2.6 1-3.9 1.2-2.4 0 .9-2.5 5.7-4.4m-10.7-.7c.6-.9 4-2.3 4.4-1.8.2.2-.7.8-1.9 1.5-2.5 1.2-3.2 1.3-2.5.3m-1.2.5c.2.2-.1.7-.7 1.1-1.3.9-2.8.9-2.8.1s3-1.8 3.5-1.2m-3.8 53c0 .4-1.4.8-3.2 1-2.9.2-3.1.1-2.2-.9 1-1.4 5.4-1.4 5.4-.1m-1.6-51.3c1.6 0-.2 1.8-2.7 2.7-4.8 1.7-8.3 2.3-8 1.5.2-.7 9.1-4.2 10.7-4.2m-11.7 54.6c1.1-.5 2.4-.7 3.6-.6 2.3.1 2.4.1.7.6-1.2.4-2.4.6-3.6.6-1.4 0-1.5-.1-.7-.6m-2.9 24.4c1.1-1.4 9-4.1 11.8-4h2.2l-2.1 1c-1.2.6-4.1 1.7-6.6 2.5-5.4 1.8-6.4 1.9-5.3.5M122.1 72c.4-.5.9-.7 1.5-.7s1 .3 1 .7-.7.7-1.5.7-1.3-.3-1-.7m-1.4 87.9c-.5.8-4 1.5-4 .8 0-.3.7-.7 1.6-1 2.3-.6 2.9-.5 2.4.2m-4-8c-1.3.8-2.8 1.3-4.3 1.5-1.7 0-1.7 0-.4-1.1.7-.6 1.6-.9 2.5-1.1 1-.1 1.9-.2 2.9-.4 1.5-.3 1.3-.1-.7 1.1M110 69.3c2-1.1 7-1.3 6.4-.3-.8.6-1.7.9-2.7 1-1.2.2-2.3.5-3.4.8-2.1.8-2.2-.5-.3-1.5m.1 66.3c-1.2 1.1-2.9 1.4-4.5 1.1-.8-.3-1.1-.6-.7-.7 1.7-.3 3.5-.4 5.2-.4M98.5 75.9c1.3-1 6.8-2.8 8-2.6.3 0 .6.5.6.9s-1.9 1.3-4.3 1.8c-5.6 1.3-6 1.2-4.3-.1m5 17.9c-1.1.6-2.3 1-3.5 1.1-2.8.4-2.8.4-1.1-.7 2-1.2 5.7-1.6 4.6-.4m-11.9 44.8c2-.6 4.1-1.1 6.2-1.5 4.8-.9 5.6-.9 6.6 0s.4 1.4-3.8 3.4c-3.1 1.5-6.2 3.2-9.1 5.1-5.2 3.5-8.7 5-10.2 4.5-1-.1-2 .3-2.7 1-1.4 1.1-2.9 2-4.6 2.6-4 1.6-4.1 1.6-2.3-1s11.1-7.3 17.3-8.7c4.1-1 5-1.7 3-2.4-.9-.4-1.3-1.4-.9-2.3.1-.3.2-.5.5-.7m-2.1 2.4c0 .4-.9 1.2-2 1.8-1.5.7-3.2 1.2-4.8 1.5-2.7.4-2.8.4-1.4-.7.8-.6 1.8-1 2.8-1.1.9-.1 1.8-.5 2.4-1.1 1.1-1.2 3-1.4 3-.4M78.1 96.4c1-.2 3.3-.9 5.3-1.5 3.9-1.2 6.1-1.5 5-.5s-7.5 3.2-7.9 2.8c-.2-.2-1.5.1-2.8.7s-2.4.7-2.4.3c-.1-.9.6-1.3 2.8-1.8m-7 2.7c.4.2-.2 1-1.5 1.9-1.8 1.3-2.3 1.4-2.3.5.1-1.2 2.5-2.9 3.8-2.4M66.6 131c1.6-1.2 8.9-3.7 10.9-3.7 1.8 0-.6 1.3-5.7 3.2-6.2 2.2-7.6 2.4-5.2.5m-.7 27.9c.4-.3.7-.2.7.1-.2.7-.4 1.4-.7 2-.6 1.4-.6 1.4-.7-.1 0-.7.2-1.4.7-2m-2.8-13c1.5-.4 1.6-.4.5.3-.6.4-1.1 1-1.3 1.7 0 1.3-3.9 6.9-5.8 8.4-1.4.9-2.8 1.7-4.4 2.2-1.5.5-2.5 1.1-2.3 1.3s-.5 1-1.6 1.7c-2.1 1.4-4.1 1.8-3.4.6.2-.4 0-.7-.6-.7-.7-.1-1.2-.5-1.5-1.1-.7-1.7-.5-2.3.3-1 .6 1 .7 1 .7 0 0-1.2 4.2-4.2 12.2-8.6 6.4-3.5 6.1-3.8-.8-.8-4.2 1.8-5 2-4.8 1 .1-.7.5-1.1.8-1.1s1.2-.5 2-1.3c.6-.7 1.4-1.2 2.3-1.5 2.6-.1 5.2-.4 7.7-1.1m-11-38.7l3.6-1.9c3.2-1.7 3.4-1.5 1.3 1.3-1 1.4-2.3 2.6-2.9 2.6-2.6.7-5.1 1.7-7.5 2.8-2.4 1.1-4.8 2.1-7.3 2.9-1.3 0 5.2-4 12.8-7.9"/><path class="st0" d="M595.4 27.1c-.6.2-.4.4.4.4s1.2-.1.9-.4c-.4-.2-.9-.2-1.3 0m-192.9 27c-.7-.2-1.4-.2-2.1 0-.7.2-.3.3.9.4s1.7-.2 1.2-.4M205 192.3c-.7-.2-1.4-.2-2.1 0-.7.2-.3.4.9.4s1.7-.2 1.2-.4M407.6 50.2c.6 0 1.1-.3 1.1-.7s-.5-.7-1.1-.7-1.1.3-1.1.7.6.7 1.1.7m8.1.8c.3-.6 1-.9 1.7-.9.8 0 1.4-.1 1.4-.3.1-.5.3-1 .5-1.5.4-1 .2-1.1-1.3-.7-2 .6-3.6 2.6-3 3.6.2.4.5.3.7-.2m1.4 3c.2-.7-1.4-.9-6.4-.9-7.2 0-8.2 1.2-1.4 1.7 5.9.4 7.5.2 7.8-.8m-29 7c2.9.2 9-1.3 9.9-2.5.7-.9.5-1-1.1-1-2.4 0-14.8 1.3-19 2-3.1.5-3 .5 2.5 1l7.7.6M378 53.4c2.2 1.3 2.2 1.3 1.7 0-.4-.7-1.2-1.1-2-1.1-1.4.1-1.4.2.3 1.1m13.4-.7c-.5-.6-6.2-.6-6.8 0-.2.3 1.3.5 3.4.5s3.6-.3 3.4-.5m179.1 135.7c.4 0 .5-.3.3-.7-.3-.4-.7-.7-1.2-.7-.4 0-.5.3-.3.7.3.3.8.6 1.2.7m-447-10.2c.2-.4-.1-.7-.7-.7s-1.1.3-1.1.7c0 .4.3.7.7.7.5 0 .9-.3 1.1-.7m699.9-19.7c-.2.4-.1.7.3.7.5-.1.9-.3 1.2-.7.2-.4.1-.7-.3-.7-.5.1-.9.3-1.2.7M149.2 165c.8 0 1.2-.1.9-.4-.4-.3-.9-.3-1.4-.1-.5.3-.3.5.5.5m-32.1 18.6c1.3-1.1 1.3-1.1.1-.7-.6.2-1.3.4-2 .4-.4 0-.7.3-.7.7.1 1 1.1.9 2.6-.4m37.4 16.3c1.5-1.5.9-1.9-1.3-1.1-1.4.6-1.8 1-1.3 1.4 1.3.7 1.6.7 2.6-.3m2.4-36.8c-.6-.2-1.2 0-1.7.4-.5.5-.3.6.9.3 1.1-.2 1.3-.5.8-.7m-4.8 1.2c.8 0 1.2-.1.9-.4-.4-.3-.9-.3-1.4-.1-.5.3-.3.5.5.5m104.5 56.5c-.6.2-1.1.6-1.1.7s.5.3 1.1.3 1.1-.3 1.1-.7-.5-.5-1.1-.3m-1-11.3c-1.3 0-2 .3-1.8.7 1 1 2.6 1 3.6 0 .2-.4-.5-.7-1.8-.7m290.2-16.8c.2 0 .3-.3.3-.7 0-.4-.3-.7-.7-.7-.4 0-.6.3-.3.7s.5.7.7.7m-296.7 22.5c.8.5 7.3.2 7.8-.4.8-.8-.8-1.1-4.5-.6-2.2.3-3.7.8-3.3 1m5.6-3.3c-.5.2-.1.4.9.4s1.4-.2.9-.4c-.6-.2-1.3-.2-1.8 0m-6.3-2.8c-.4-.3-.7-.1-.7.3s.3.8.7.8c.4 0 .7-.1.7-.3s-.3-.6-.7-.8m-97.4-5.2c-.6.2-.4.4.4.4s1.2-.1.9-.4c-.3-.2-.9-.2-1.3 0m78.8-173.4c.4 0 .7-.3.7-.7s-.3-.7-.7-.7c-.4 0-.7.3-.7.7 0 .4.3.7.7.7m539.2 80c-.2-.4-1.8-.7-3.4-.7-2.6.1-2.7.2-1.2.7 2.6.9 5.2.9 4.6 0m6.9 23.7c-.4-.3-.7-.1-.7.3s-.6.9-1.3 1.1c-1 .3-.9.4.3.4 1.7 0 2.8-1.1 1.7-1.8m-2.6-44.9c1.2 0 1.8-.1 1.3-.3-.7-.2-1.4-.2-2.2 0-.6.2-.2.3.9.3m15.4 40.5c-1.4-.4-1.5-.3-.7.3s-.2.8-3.9.8c-2.8 0-8.3.2-12.3.4-4.3.2-7.3 0-7.3-.4.1-.5.4-.9.9-1.1.5-.2.3-.4-.4-.4-1.2-.1-3.3 1.5-3.3 2.4 0 .2 1.4.5 3 .7 1.8.2 3.7.2 5.5.1 1.4-.1 6.8-.4 12-.7 8.9-.4 10.5-.9 6.5-2.1m-10-1.8c1.4.9 3.1.9 2.5 0-.5-.5-1.3-.8-2-.7-1.3 0-1.4.1-.5.7M836 90.2c0 .4.3.7.7.7.4 0 .7-.3.7-.7 0-.4-.3-.7-.7-.7-.4-.1-.7.3-.7.7m-64.8 17.1c.7.6 1.5.9 2.3 1.1 1.6 0 1-.6-1.4-1.4-2.1-.7-2.2-.7-.9.3m5.4.7c-.4-.2-.9-.1-1.1.3-.3.4 0 .7.7.7 1.2.1 1.4-.4.4-1m-5.6 2.8c-.7.2-.1.3 1.3.3s1.9-.2 1.3-.3c-.9-.2-1.8-.2-2.6 0m-3.2 12.5c1.8-.3 3.6-.5 5.5-.5 3.2 0 4-.2 2.9-.7-1.9-.4-3.8-.6-5.7-.4-5 .3-4.7.2-4.2 1.2.3.5.9.7 1.5.4m44.1 13.4c.8 0 1.2-.1.9-.4-.4-.3-.9-.3-1.4-.1-.5.3-.3.4.5.5m21.9-6c1.4 0 1.9-.1 1.3-.3-.8-.2-1.7-.2-2.5 0-.7.2-.1.3 1.2.3m-8.4 7.6c.9.1 1.8.1 2.7 0 .7-.4-1.8-1.6-3.4-1.6-2.5 0-1.9 1.4.7 1.6m10.2 10.1c.3-.4-1.1-.7-3.7-.6-1.6.1-3.3 0-4.9-.1-1.5-.4-2.6 0-2.2.7.6.9 10.2.9 10.8 0m-66.6-7.1c-.3.3.8.6 2.4.6s3.1-.3 3.3-.6-.9-.6-2.4-.6c-1.1-.1-2.3.1-3.3.6m11.7 0c-.6.2-.4.4.4.4s1.2-.1.9-.4c-.3-.2-.8-.2-1.3 0m-6.5-2.8c-.4-.3-.9-.3-1.4-.1-.6.2-.4.4.4.4s1.3-.1 1-.3m36.8-8.1c-5.6 0-10.4.3-10.6.7-.5.8 16.7.6 19-.1 1.2-.4-2.3-.7-8.4-.6m-16.7 8.3c2.1-.2 4.1-.1 6.2.2 3 .6 10.8.9 10.3.4-1.5-.5-3-.9-4.5-1.1-2.3-.4-4.4-1.1-4.7-1.5-.8-.6-1.7-1-2.7-1.1-1.3-.2-2.6-.6-3.9-1-.9-.3-5-.5-9.2-.4-6.2.1-7.5.4-7.8 1.4-.1.6.1 1.2.6 1.2s.6.3.4.7c-.4.8 11 1.8 15.3 1.2m-12.9-15.5c-.4-.3-.9-.3-1.4-.1-.6.2-.4.4.4.4s1.2-.1 1-.3m8.1-22.6c2.3 1 5.6 1.5 5.6.9s-7.2-2.8-7.6-2.3c-.2.2.7.8 2 1.4m4.8-22.8c3.2 0 2.9-.4-.8-1-1.9-.3-2.6-.3-2.3.3s1.6.7 3.1.7m6.2-1.7c-.6-.2-1.1-.1-1.1.3s.5.7 1.1.7 1.1-.1 1.1-.3-.5-.5-1.1-.7m-5.3 37.4c-1.3-.4-2.6-.6-3.9-.6-2.1 0-2.1 0 .4.6 3.5.7 5.8.7 3.5 0m.5 18.1c1.7 0 3.2-.3 3.4-.6.5-.9-2-.9-4.7 0-1.5.4-1.3.5 1.3.6m-12.8-63.7c-.6.2-.4.4.4.4s1.2-.1.9-.4c-.4-.2-.9-.3-1.3 0M778.6 54c-.6.2-.4.4.4.4s1.2-.1.9-.4c-.4-.2-.9-.2-1.3 0m16.2 18.7c-2.2.6-3 1.2-2.8 1.9.5 1.3.6 1.3 2.8-.2 1.4-.9 2-1 2.4-.3.6 1 2.9.4 2.9-.7.1-1.3-2.1-1.6-5.3-.7m-.5-21c-2.2-.5-4.2-1.3-4.4-1.8s-3-.9-9.2-1.1c-3.6 0-7.3-.2-10.9-.6-1.3-.3-1.9-.2-1.6.3s2 .9 3.8 1.2c8.4 1.1 20.3 3.2 20.7 3.6s1.4.5 3.8-.2c1.6-.3 1.3-.6-2.2-1.4m-15.8 37.2c-.9.2-.3.3 1.2.3s2.3-.1 1.6-.3c-.8-.1-1.8-.1-2.8 0m9.8-1.7c.8 0 1.2-.1.9-.4-.4-.3-.9-.3-1.4-.1-.5.3-.3.5.5.5m-25.1-42.6c-.6-.2-1.2-.2-1.8 0-.5.2-.1.4.9.4s1.3-.2.9-.4m18.7 65.2c-2-.9-4.1-.9-3.6 0 .2.4 1.5.7 2.7.7 2 0 2.1-.2.9-.7m19.4-24.6c.4.4.9.6 1.4.6.6 0 1 .3 1 .6s1 1 2.3 1.6c2.2 1 1.7 1.1-8.4 1.4-7.5.3-9.5.5-6.8.8 1.6.2 3.3.3 4.9.2.5-.1 4.5-.2 8.8-.2 7.3 0 9.8-.7 6.4-1.8-2.1-.7-1.8-1.8.5-1.9 1.8-.1 1.8-.1-.5-.8-3.1-1-10.1-1.3-9.6-.5m-39.7-23.3l2.5.1-2.5 1c-1.4.5-1.9 1-1.3 1 .6 0 1.2.5 1.3 1.1 0 .6.9 1.2 2.3 1.3s3.5.3 4.8.3c2.3 0 2.2-.1-.9-.7-3.6-.8-4-1.3-2.3-2.7.8-.7 1.7-.7 4.1 0 2.2.6 3.6.7 5.1.1.8-.4 1.7-.5 2.6-.4.8.5 4.3-.4 4.3-1.1 0-1-6.6-2.1-8.8-1.4-2.5.7-8 .5-10-.4-.9-.4-1.9-.1-2.5.6-1.1 1.1-1 1.1 1.3 1.2m50.2 15.4c-1.1-.2-2.2-.2-3.2 0-.9.2-.2.3 1.6.3s2.5-.1 1.6-.3m3.9 8.8c-.4-.3-.9-.3-1.4-.1-.6.2-.4.4.4.4s1.3-.1 1-.3m-4.3 35.6c.1-.5-.8-.7-2.2-.6s-3.3.3-4.4.3c-1.6.1-1 .4 2.2 1.1 2.1.4 4.1 1 6.1 1.7 1.8.8 6.3 1.2 5.6.5-1.2-.6-2.5-1-3.9-1.3-2-.5-3.5-1.3-3.4-1.7m48.2 55c1 0 1-.1 0-.7-.6-.4-1.4-.7-2.2-.7-1 0-1 .1 0 .7.7.4 1.4.7 2.2.7m-129.7 10.1c-.5.5-.3.6.9.3 1-.3 1.3-.6.8-.8-.6-.1-1.3.1-1.7.5m20.9 4.2c0 .6.6 1 1.4 1s1.4-.3 1.4-.7 1.6-.6 4.1-.4c2.7.2 5.3.1 8-.3 2.5-.4 3.1-.6 1.8-.7s-1.8-.3-1.3-.6-3.3-.6-8.3-.6c-4.3 0-8.5-.3-12.8-1-2.4-.6-4-.6-4.8-.2s0 .8 3.7 1.2c5.8.6 6.8 1 6.8 2.3"/><path class="st0" d="M744.4 190.6c0 .3.8.6 1.8.6s1.8-.1 1.8-.3-.8-.4-1.8-.6-1.8 0-1.8.3m30.2-.6c-.7.2-.1.3 1.3.3s1.9-.1 1.3-.3c-.9-.1-1.8-.1-2.6 0m-55.3-5.3c0 .4 1 .6 2.2.6s2.2-.3 2.2-.7-1-.6-2.2-.6-2.2.3-2.2.7m65.1-1.7c0-.2-.5-.5-1.1-.7s-1.1-.1-1.1.3.5.7 1.1.7 1.1-.1 1.1-.3m13.5 9.2c-.6.2-.4.4.4.4s1.2-.1.9-.4c-.3-.2-.9-.2-1.3 0m16.4-10.1c-.4-.3-.9-.3-1.4-.1-.6.2-.4.4.4.4s1.2-.1 1-.3m-15.8 4.5c-5 0-9 .2-9 .5 0 .7 21.8.6 25.4-.1 2.6-.6 2.7-.9.2-1.1-.6-.1-1.1-.4-1.4-.8-.3-.5-.8-.3-1.3.4s-.9.9-1.1.2c-.2-.5-1.6-.9-3.3-.9-2.6 0-2.8.1-1.7.9s-.2.9-7.8.9m-189.4 26.6c0 .9 2 .8 2.5-.1.3-.4.3-.9.1-1.1-.4-.6-2.6.4-2.6 1.2m167.5-29.9c0-.4-.8-.7-1.8-.7s-1.6.3-1.4.7c.5.5 1.1.8 1.8.7.7 0 1.4-.3 1.4-.7M817.7 82c-.9.5.8.8 5.9 1.2 3.9.3 8.8.8 11 1.1 5.7.8 6.1.8 5.3.1-1.2-.6-2.5-.9-3.9-1-1.8-.2-6.3-.7-10.2-1.2-4.4-.6-7.4-.6-8.1-.2M608.5 205.6c-.2.1 1.3.3 3.4.3s3.8-.3 4.1-.7c.3-.7-6.8-.3-7.5.4m4.9-15c1.5-1 .7-1.4-1.7-1-1.5.3-1.8.6-1.1 1 1.3.8 1.5.7 2.8 0m41.9 9.4c.2-.4.1-.7-.3-.7-.5.1-.9.3-1.2.7-.2.4-.1.7.3.7.5 0 .9-.3 1.2-.7"/><path class="st0" d="M725.8 181c-6.4.1-7.7.1-9.7 0-3.6-.3-5.5 0-5 .8.2.4 3.4.8 7 .8s9.5.4 13 .7 9.1.9 12.4 1.1c2.9.2 5.7.7 8.4 1.7 1.9 1 3.4 1.1 7.2.7 2.4-.3 4.9-.4 7.3-.2 6.6.8 17.6 1 18.6.3s.8-.7-.4-.8c-.8 0-3-.2-5-.4s-8.1-.4-13.6-.4c-9.1-.1-10.6-.9-2.5-1.3 1.7-.1 3.4-.3 5-.8 1.1-.4-2.3-.6-8.8-.5-5.8.1-10.6-.1-10.6-.3s-18.5-1.4-23.3-1.4m26.7 3.8c.5-.8 3.2-.1 3.2.8 0 .4-.1.6-.2.5-.6-.2-1.2-.3-1.8-.4-.8-.2-1.4-.6-1.2-.9m-13.6-5.2c.8 0 1.2-.1.9-.4-.4-.3-.9-.3-1.4-.1-.5.3-.3.4.5.5m-7.4.3c5-.5 7.2-1.6 3.2-1.6-1.7 0-3.4.4-5 1-2.1.9-2 .9 1.8.6m68.1 2.7c-.9-.6-11-.4-12.9.3-.8.3-.8.5 0 1.4.6.6 1.5.9 2.4.6 2.9-1 5.9-1.5 9-1.7 1.5.1 2.1-.2 1.5-.6m57.1-51.9c1.4 0 1.9-.1 1.3-.3-.8-.2-1.7-.2-2.5 0-.7.2-.2.3 1.2.3m-.5 30.7c1.5 0 1.5-.1-.2-1-1.9-1.1-2.6-1-1.8.3.5.5 1.2.8 2 .7m7.3-15.2c1 .4 2.1.6 3.2.6h1.8l-1.8-.6c-1-.3-2.1-.5-3.2-.6-1.4 0-1.4 0 0 .6m14.5 38.5c3.4 0 6-.2 5.9-.4-.8-.8-12.1-1.2-12.1-.4 0 .5 2.3.8 6.2.8m-35.7-15c-.6.2-.4.4.4.4s1.2-.1.9-.4c-.4-.2-.9-.2-1.3 0m-3.1-78c-.2.4.2.7 1 .7 1.7 0 1.9-.4.4-1-.5-.3-1.1-.2-1.4.3m.2 38c-.5.2-.1.4.9.4s1.4-.2.9-.4c-.6-.2-1.3-.2-1.8 0m29.8 68.1c-.2-.4-.7-.7-1.1-.7-.4 0-.7.3-.7.7 0 .4.5.7 1.1.7s1-.3.7-.7m-47-7c-.4-.3-.9-.3-1.4-.1-.6.2-.4.4.4.4s1.2 0 1-.3m38-24.2c4.2.2 7.7.5 7.7.6.8-.2 1.5-.6 2.2-1 1.9-1 1.3-1.1-8.3-1.1-5.7 0-10.1.2-9.8.5s4 .7 8.2 1m-22.1 18.7c1.4 0 1.9-.1 1.3-.3-.8-.2-1.7-.2-2.5 0-.7.1-.2.3 1.2.3m-9.6 4.7l3.2.5c1.8.3 3.4.6 3.6.6.7-.2 1.3-.5 1.8-1 1.3-1.1 1.3-1.1-.4-.7-1.7.3-3.3.5-5 .5l-3.2.1zm21.6 8.1c-.5.2-.1.4.9.4s1.4-.2.9-.4c-.6-.2-1.2-.2-1.8 0m-18-17.3c-.6.2-1.1.6-1.1.7 0 .6 1.4.3 1.8-.4.2-.4-.1-.5-.7-.3m-2.9 5.2c1.6 0 2.3-.1 1.6-.3-.9-.2-1.9-.2-2.9 0-.9.1-.3.3 1.3.3m28.5.9c.8 0 1.2-.1.9-.4-.4-.3-.9-.3-1.4-.1-.5.2-.3.4.5.5M769.3 54.8c-.6.2-.4.4.4.4s1.2-.1.9-.4c-.4-.2-.9-.2-1.3 0m84.2 130.1c7.1-.2 13.3-.6 13.8-.9 1.2-.6-15.5-.1-22.1.7-2.7.3.5.4 8.3.2M417.3 36.4c-1.6.5-1.5.6.9.7 1.5 0 2.8-.3 3.1-.7.5-.9-1.4-.9-4 0M440.2.7c.8-.5.5-.7-1.2-.7-1.3 0-2.3.3-2.3.7 0 .9 2.1.9 3.5 0m4.7 2.9c.3-.4 0-.5-.7-.3s-1.1.6-1.1.7c0 .6 1.3.3 1.8-.4M443.4 16c.1 0 .5-.3.7-.7s-.1-.7-.7-.7-1 .3-.7.7.6.7.7.7m7.2-1.1c1.3-1 1.3-1.1.1-1.1-.7 0-1.3.3-1.3.8s-.5.6-1.1.4-1.1-.1-1.1.3c.2 1 1.9.8 3.4-.4m.4-9.2c1 0 1.4-.2.9-.4-.6-.2-1.2-.2-1.8 0-.5.2-.1.4.9.4m44.8 21.9c-2.2.3-2.5.4-1.2.6 1 .2 1.9.7 2.5 1.5.6 1.1.7 1.1 1-.1.2-.8 1-1.3 2.2-1.4 1.9-.1 1.9-.1.2-.6-1.6-.2-3.2-.2-4.7 0m-13.5-.5c-.5.2-.1.4.9.4s1.4-.2.9-.4c-.6-.2-1.3-.2-1.8 0"/><path class="st0" d="M429.8 20.1c6.5.6 4.5 1.4-5.7 2.1-3.6.2-7.2.6-10.7 1.2-1.9.4-3.8.7-5.7.8-2.8.1-2.8.1-.7.7 2.5.7 12.8.3 28.6-1.1 1.6-.1 5.6-.6 9-1 14.9-1.8 29.1-3 34.9-2.9 7.7.2 19.4-.8 19.9-1.6.2-.3 1.7-.6 3.3-.6 3.6 0 3.3-.5-.5-1l-3.2-.4c-.2 0 .1-.4.7-.8.9-.6.8-.7-.4-.8l-2.3-.2c-.5 0-.9-.2-1.3-.5-.8-.8-3.2.2-3.6 1.6-.3 1-1 1.3-2.6 1.1-1.6-.1-3.2.2-4.7.8-2 .7-4.1 1-6.2.9-3.3 0-6.5.1-9.8.4l-6.1.6 2.1-1.5L467 16h-2.7c-2.2 0-2.7.3-2.7 1.4 0 2.5-3.3 2.6-25.8 1-5.7-.4-6.9-.7-5-1 1.4-.3 3.6-.8 5-1.2l2.5-.7-3.2-.1c-1.9-.1-3.9.4-5.6 1.4-1.4.8-3 1.3-4.6 1.4-3.9 0-.5 1.3 4.9 1.9m66.9-4.1c.4 0 .7.3.8.7 0 .4-.1.7-.3.7s-.5-.3-.8-.7-.1-.7.3-.7m-36.6-4.1c-.4-.3-.9-.3-1.4-.1-.6.2-.4.4.4.4s1.2-.1 1-.3m45.2 16.3c1.4 0 1.9-.1 1.3-.3-.8-.2-1.7-.2-2.5 0-.7.1-.1.3 1.2.3m5.4-.8c-.6.2-1.1.5-1.1.7s.5.3 1.1.3 1.1-.3 1.1-.7-.5-.6-1.1-.3M498.9 7.2c0-.6-3.4-.4-4 .2-.2.2.6.3 1.8.3s2.2-.2 2.2-.5m11.6 10c1.2-.3 2.5-.5 3.8-.5l2.2-.1-1.9-.6c-2.2-.7-5.6-.2-5.6.9-.1.4.6.5 1.5.3m-44.5-7c.8-.5.4-.7-1.6-.7-1.5 0-2.8.3-3.1.7-.5.9 3.3.9 4.7 0"/><path class="st0" d="M481.6 16.1c.7-.4.3-.7-1.3-1-2.1-.3-2.8.1-1.7 1.1.7.6 1.8.6 3-.1M457.4 4.3c.8-.5.5-.7-1.3-.7-1.4 0-2.2.3-1.9.7.5 1 1.8 1 3.2 0m15.6 25c-.5.2-.1.4.9.4s1.4-.2.9-.4c-.6-.2-1.2-.2-1.8 0M451 16c0 .9.8.9 2.1 0 .9-.6.8-.7-.5-.7-.9 0-1.6.3-1.6.7m-29 16.8c-.3-.5-1.1-.5-2.3 0-1.2.4-2.5.7-3.7.8-1.9.1-1.9.1.2.6 1.9.5 5.2.2 6-.4.2-.1 0-.5-.2-1m-39.4-3.1c1 0 2-.4 2.9-1 1.4-1 1.4-1.1-.2-1.1-.9 0-1.6.3-1.6.6s-.6.8-1.3 1c-1 .4-1 .4.2.5m1.6-3.2c-.4-.3-.9-.3-1.4-.1-.6.2-.4.4.4.4s1.2-.1 1-.3m9.1-1.1c.3-.4-.3-.7-1.4-.7-.9-.1-1.7.2-2.3.8-.4.6 0 .7 1 .4.9-.2 1.4-.1 1.2.2-.2.6-.2 1.2.1 1.8.6 1.5 1.7 1.5 1.7 0 0-.6.9-1.5 2-1.9 1.7-.7 1.8-.9.6-1.2-.8-.2-1.5 0-1.7.5-.1.4-.5.8-1 .8-.3 0-.5-.3-.2-.7m-25.2 7.1c-.4 1.2 2.5 1.1 5.2-.2l2.1-1-3.5.1c-2 .2-3.6.6-3.8 1.1m1.9 7.9c1.5-.9 1.4-.9-1.7-.8-1.9.1-3.7.5-4.1 1-1.2 1.2 3.7 1.1 5.8-.2m-14.2-15l2.5-.6-2.5-.1c-3.6-.1-7.9.7-7.9 1.5s2.5.5 7.9-.8m68.1 1.7c-.6-.2-1.2-.2-1.8 0-.5.2-.1.4.9.4s1.4-.1.9-.4m-15.7 0c-.7-.2-1.4-.2-2.1 0-.7.2-.3.4.9.4s1.7-.1 1.2-.4m111.3-11.6c-.4-.3-.9-.3-1.4-.1-.6.2-.4.4.4.4s1.2 0 1-.3m-58.2 11.4c-.2.4.1.7.7.7s1.1-.3 1.1-.7c0-.4-.3-.7-.7-.7-.4 0-.8.3-1.1.7m-56.4 2.2c-1.3 0-1.4.1-.5.7 1.4.9 3.1.9 2.5 0-.5-.5-1.2-.8-2-.7m353.6 14.8c-.6.2-.4.4.4.4s1.2-.1.9-.4c-.3-.2-.8-.3-1.3 0m-62.8-33c.8 0 1.3-.3 1-.7-.4-.5-.9-.7-1.5-.7s-1 .3-1 .7.7.7 1.5.7m115 63.5c3 .1 6 .3 6.6.4s.8-.1.3-.6c-1-1-12.4-1.7-12.4-.8 0 .4 2.5.8 5.5 1M707 4.6c-.4-.3-.9-.3-1.4-.1-.6.2-.4.4.4.4s1.2 0 1-.3m119 70.9c1 0 1.4-.2.9-.4-.6-.2-1.2-.2-1.8 0-.5.2-.1.4.9.4m-5.4-.6c2 .9 3.4.9 2.9 0-.7-.5-1.5-.8-2.4-.7-1.7 0-1.8.1-.5.7M684.7 6.7c2.3.6 2.4.6 2.4-.8 0-.9-1-1.6-3-2.2-1.6-.5-3.1-.8-3.3-.5-.6.6 2.2 3.1 3.9 3.5m-21.4 13.9c-1.4-.2-2.9-.2-4.3 0-1.3.2-.4.3 2 .3s3.5-.2 2.3-.3m-2.3 3.7c-.4.2-.2.4.5.4s1.3.4 1.3.8.7.7 1.6.7c1.5 0 1.4-.1-.5-1.1-.9-.6-1.9-.9-2.9-.8m16.1-18.6c1 0 1.4-.2.9-.4-.6-.2-1.2-.2-1.8 0-.5.2-.1.4.9.4m84.5 64.4c13.5 1 24.7 2.5 26.3 3.4 1.6.6 3.4.1 4.4-1.2.7-.8.2-1-2.7-1-2.4-.1-4.8-.4-7.1-1-1.9-.6-7.9-1.2-13.2-1.4s-11.3-.6-13.5-.9c-3.8-.4-3.9-.4-1.7.6 2.4.8 5 1.3 7.5 1.5m58.6 29.5c.4 0 .7-.3.7-.7 0-.4-.3-.7-.7-.7s-.7.3-.7.7c0 .4.3.7.7.7m-68.1-48.8c-.7.7-.5.9.9.9s1.5-.2.9-.9-1.1-.7-1.8 0m3.2 10.8c.7.2 1.3.7 1.3 1.1 0 1 1.6.4 2-.7.2-.6-.5-.8-2.1-.8-1.4 0-1.9.2-1.2.4m1.8-6.8c-.5.2-.1.4.9.4s1.4-.2.9-.4c-.6-.2-1.3-.2-1.8 0m-3.3 4.3c-.7.2-.1.3 1.3.3s1.9-.2 1.3-.3c-.9-.2-1.7-.2-2.6 0m-.4 5.6c.7.1 1.5-.2 2-.7.6-.9-1.1-.9-2.5 0-.8.6-.8.7.5.7m36.2 18.5c-.7-.2-1.4-.2-2.2 0-.7.2-.3.3.9.4s1.8-.2 1.3-.4M653.5 14.4c1.4 0 1.9-.1 1.3-.3-.8-.2-1.7-.2-2.5 0-.8.1-.2.3 1.2.3m1.6 10.1c2.8.1 3.3-.1 2-.5-2.4-.8-5.7-.9-5.7-.2 0 .3 1.7.6 3.7.7m-93-8.9c1.8-.3 3.5-.4 5.3-.4 2.2 0 3-.2 2.6-.7s-2.9-.6-6.3-.3-5.2.7-4.6 1.1c1 .5 2 .6 3 .3m4.5-12.1c.5-.7-3.5-.9-6-.2-.9.3-1.3.7-.9.9.9.7 6.4.1 6.9-.7m1.7.8c.4 0 .7-.3.7-.7 0-.4-.3-.7-.7-.7s-.7.3-.7.7c0 .4.3.7.7.7m13.8 11.9c.3.8 1.1.9 3.5.5 1.7-.3 4.9-.7 7-.9 8.8-.8 12-1.4 13.7-2.8l1.7-1.4-2.5.4c-1.4.2-7.1.8-12.7 1.4s-10.4 1.1-10.6 1.4c-.3.4-.3 1-.1 1.4M551.3 5.6c3.9-1.4 4.2-2.2.5-1.6-1.8.3-3.6.6-4.1.6-.6.1-1 .5-1.2 1-.4 1.2 1.3 1.2 4.8 0m-23.8 5.9c1 0 1.4-.2.9-.4-.6-.2-1.2-.2-1.8 0-.5.2-.1.4.9.4m6.3 4.6c1.6-.6.9-.9-1.8-.8-2.3.1-2.5.1-.9.6.9.3 1.8.4 2.7.2m3.6-.2c.9.6 3.7.3 3.7-.4-.7-.3-1.5-.4-2.3-.3-1.6.1-2 .3-1.4.7m8.7 5.2c.8 0 1.5-.3 1.5-.7s-.5-.7-1-.7c-.6 0-1.1.3-1.5.7-.2.3.2.7 1 .7m72.3.6c1 0 1.4-.2.9-.4-.6-.2-1.2-.2-1.8 0-.5.2-.1.4.9.4m13.7-11.5c.8-.1 1.5-.5 2-1.1 1.1-1.4.1-1.4-1.8 0-1 .8-1.1 1-.2 1.1m-29.4 16.7c.6.4 2.8.5 5 .3 1.9-.3 3.9-.2 5.7.3 2.3.9 5 1 5 .2s-5.5-1.6-11.7-1.5c-3.7 0-4.8.2-4 .7m35.8-9.6c1 0 1.4-.2.9-.4-.6-.2-1.2-.2-1.8 0-.5.3-.1.4.9.4m7.8 11.1c3.7.8 4.4.8 3.9 0-.2-.4-1.8-.7-3.4-.6l-3 .1 2.5.5zm-13.8-10.7c-.4-.3-.9-.3-1.4-.1-.6.2-.4.4.4.4s1.3 0 1-.3m-9.6 9.2c1.3 2.1 6 1.9 10.2-.5 2.8-1.6 3.6-1.8 5.1-1.1 2.2 1 3.1 1 3.1.1 0-.4-.5-.7-1.1-.7-.9-.1-1.7-.4-2.5-.9-1.2-.7-1.8-.7-3.5.4-1.1.7-2.3 1.1-3.5 1.3-.8 0-1.5.4-1.8 1.1-.5 1.2-4.4 1.5-5.1.4-.2-.4 0-.7.5-.7.7 0 .7-.2.1-.8-1.4-1.5-2.5-.2-1.5 1.4m-3.4-.9c1.2 0 1.8-.1 1.3-.3-.7-.2-1.4-.2-2.2 0-.7.1-.3.3.9.3m3.6-4.9c.9-.4 1.1-.6.4-.7-.8 0-1.5.3-2.2.7-1.3.8-.2.8 1.8 0"/></svg>